<svg xmlns="http://www.w3.org/2000/svg" xmlns:xlink="http://www.w3.org/1999/xlink" width="23" height="36" viewBox="0 0 23 36"><defs><path id="dwrua" d="M1721.273 411.845a1.148 1.148 0 1 0 .001 2.297 1.148 1.148 0 0 0 0-2.297z"/><path id="dwrub" d="M1705.122 426.309l-3.917 4.936h-6.941l3.917-4.936zm-4.108-17.025a16 16 0 0 1-2.698-8.918c0-8.86 7.209-16.07 16.07-16.07s16.07 7.21 16.07 16.07c0 3.192-.933 6.275-2.697 8.918l-.014.02-13.359 20.953-13.359-20.953-.013-.02zm33.494 21.96h-6.94l-3.918-4.935h6.941zm-1.201 7.232l-3.918-4.936h6.942l3.917 4.936zm-6.848-4.936l3.917 4.936h-31.98l3.918-4.936zm-6.833-7.231h1.093l3.917 4.936h-8.156zm-10.48 0l3.147 4.936h-8.157l3.917-4.936zm-16.704 7.231h6.94l-3.916 4.936h-6.942zm4.286-9.093l-11.48 14.464a1.147 1.147 0 0 0 .9 1.861h56.476a1.148 1.148 0 0 0 .9-1.861l-11.48-14.464a1.147 1.147 0 0 0-.899-.434h-10.055l8.585-13.464a18.288 18.288 0 0 0 3.077-10.183c0-10.127-8.238-18.366-18.366-18.366-10.127 0-18.366 8.24-18.366 18.366 0 3.643 1.064 7.163 3.078 10.183l8.584 13.464h-10.055c-.35 0-.681.16-.9.434z"/><path id="dwruc" d="M1714.386 391.183c5.064 0 9.183 4.12 9.183 9.183 0 5.111-4.152 9.183-9.183 9.183-5.032 0-9.183-4.072-9.183-9.183 0-5.063 4.12-9.183 9.183-9.183zm0 20.662c6.302 0 11.479-5.103 11.479-11.479 0-6.33-5.15-11.479-11.479-11.479-6.33 0-11.479 5.15-11.479 11.48 0 6.377 5.18 11.478 11.48 11.478z"/><path id="dwrud" d="M1719.221 415.762a1.148 1.148 0 0 0-1.576.391l-4.242 7.039a1.148 1.148 0 1 0 1.966 1.185l4.243-7.039a1.148 1.148 0 0 0-.39-1.576z"/></defs><g><g transform="translate(-1703 -389)"><g><use fill="#ffe600" xlink:href="#dwrua"/></g><g><use fill="#ffe600" xlink:href="#dwrub"/></g><g><use fill="#ffe600" xlink:href="#dwruc"/></g><g><use fill="#ffe600" xlink:href="#dwrud"/></g></g></g></svg>