<svg xmlns="http://www.w3.org/2000/svg" width="58.772" height="58.772" viewBox="0 0 58.772 58.772"><g id="address" transform="translate(-.001)" fill="#ffe600"><path id="Path_56" data-name="Path 56" d="M307.148 260a1.148 1.148 0 1 0 1.148 1.148 1.148 1.148 0 0 0-1.148-1.148zm0 0" transform="translate(-270.874 -230.155)"/><path id="Path_57" data-name="Path 57" d="M11.728 42.447L.249 56.911a1.148 1.148 0 0 0 .9 1.861h56.476a1.148 1.148 0 0 0 .9-1.861l-11.48-14.464a1.147 1.147 0 0 0-.9-.434H36.091l8.585-13.464a18.366 18.366 0 1 0-30.577 0l8.585 13.464H12.627a1.148 1.148 0 0 0-.899.434zM7.443 51.54h6.941l-3.917 4.936H3.525zm16.7-7.232l3.147 4.936h-8.154l3.918-4.936zm10.48 0h1.097l3.917 4.936H31.48zm6.832 7.232l3.917 4.936H13.4l3.918-4.936zm6.848 4.936L44.39 51.54h6.941l3.917 4.936zm1.2-7.232h-6.935l-3.918-4.936h6.941zm-33.488-21.96a16.07 16.07 0 1 1 26.745 0l-.013.02-13.36 20.953L16.028 27.3zm4.108 17.025l-3.917 4.936H9.264l3.918-4.936zm0 0"/><path id="Path_58" data-name="Path 58" d="M167.479 82.958A11.479 11.479 0 1 0 156 71.479a11.48 11.48 0 0 0 11.479 11.479zm0-20.662a9.183 9.183 0 1 1-9.183 9.183 9.193 9.193 0 0 1 9.183-9.179zm0 0" transform="translate(-138.092 -53.113)"/><path id="Path_59" data-name="Path 59" d="M251.98 292.853a1.148 1.148 0 0 0-1.576.391l-4.243 7.039a1.148 1.148 0 0 0 1.966 1.185l4.243-7.039a1.148 1.148 0 0 0-.39-1.576zm0 0" transform="translate(-217.758 -259.09)"/></g></svg>