<svg xmlns="http://www.w3.org/2000/svg" xmlns:xlink="http://www.w3.org/1999/xlink" width="26" height="46" viewBox="0 0 26 46"><defs><path id="98qda" d="M877.329 6369.138c0-.813-.662-1.475-1.475-1.475h-4.992v-6.13h4.992c.813 0 1.475-.662 1.475-1.475v-4.726c0-5.687 3.43-9.22 8.948-9.22l5.102.009v5.626l-3.286.001c-1.045 0-2.545.124-3.497 1.203-.787.892-.893 2.078-.893 3.122v3.985c0 .814.662 1.476 1.475 1.476h5.94l-.002 6.129h-5.938c-.813 0-1.475.662-1.475 1.475v17.191h-6.374zm6.835 19.862c1.218 0 2.21-.991 2.21-2.21v-16.456h5.203c1.218 0 2.21-.992 2.21-2.21l.002-7.051c0-.8-.436-1.541-1.137-1.933a2.246 2.246 0 0 0-1.093-.278h-5.185v-2.79c0-.908.122-1.237.224-1.354.063-.07.354-.3 1.496-.3h3.746c1.219 0 2.21-.992 2.21-2.21v-6.548c0-1.216-.99-2.207-2.206-2.21l-5.565-.009c-3.434 0-6.353 1.133-8.442 3.277-2.08 2.134-3.18 5.112-3.18 8.614v3.53h-4.256c-1.218 0-2.21.992-2.21 2.21v7.052c0 1.218.992 2.21 2.21 2.21h4.257v16.456c0 1.219.991 2.21 2.21 2.21h7.296z"/></defs><use fill="#333" xlink:href="#98qda" transform="translate(-868 -6343)"/></svg>