<svg xmlns="http://www.w3.org/2000/svg" xmlns:xlink="http://www.w3.org/1999/xlink" width="11" height="12" viewBox="0 0 11 12"><defs><path id="o1qka" d="M948.17 1848.492l-.035-.035a1.211 1.211 0 0 0-1.708 1.716l.04.04a1.207 1.207 0 0 0 1.712-.009 1.21 1.21 0 0 0-.008-1.712z"/><path id="o1qkb" d="M974.168 1822.428c-7.65-7.649-20.095-7.649-27.744 0-6.261 6.262-7.552 15.988-3.138 23.653a1.211 1.211 0 0 0 2.099-1.208c-3.868-6.718-2.737-15.244 2.752-20.732 6.704-6.705 17.614-6.705 24.318 0 6.704 6.704 6.704 17.613 0 24.318-5.522 5.522-14.083 6.633-20.818 2.702a1.21 1.21 0 1 0-1.221 2.091 19.534 19.534 0 0 0 9.863 2.668 19.623 19.623 0 0 0 13.889-5.749c7.648-7.649 7.648-20.094 0-27.743z"/><path id="o1qkc" d="M984.758 1841.22a1.21 1.21 0 0 0-.929.732l-2.886 6.975a1.21 1.21 0 0 0 .14 1.175l2.449 3.372-6.044 6.048-3.376-2.448c-.34-.247-.785-.3-1.174-.138l-6.972 2.89a1.21 1.21 0 0 0-.732.93l-.652 4.118-8.55.003-.656-4.116a1.21 1.21 0 0 0-.733-.928l-6.975-2.887a1.208 1.208 0 0 0-1.175.14l-3.372 2.45-6.047-6.045 2.448-3.375c.247-.34.3-.786.138-1.175l-2.89-6.971a1.21 1.21 0 0 0-.93-.732l-4.118-.653-.004-8.55 4.116-.655a1.21 1.21 0 0 0 .929-.733l2.886-6.975a1.21 1.21 0 0 0-.14-1.175l-2.449-3.372 6.044-6.048 3.376 2.448c.34.247.785.3 1.174.138l6.972-2.89c.389-.162.666-.513.732-.93l.652-4.118 8.55-.003.656 4.116c.066.416.343.767.733.928l6.975 2.887c.39.16.834.108 1.175-.14l3.372-2.45 6.048 6.045-2.448 3.375c-.248.34-.3.786-.139 1.175l2.89 6.971c.162.389.514.666.93.732l4.118.653.004 8.55zm6.534-10.241c0-.595-.434-1.103-1.022-1.196l-4.47-.708-2.371-5.719 2.657-3.663a1.21 1.21 0 0 0-.124-1.568l-7.51-7.505a1.21 1.21 0 0 0-1.568-.123l-3.66 2.659-5.723-2.368-.711-4.468a1.211 1.211 0 0 0-1.196-1.02l-10.619.004c-.595 0-1.102.433-1.195 1.021l-.708 4.47-5.72 2.372-3.663-2.658a1.21 1.21 0 0 0-1.567.125l-7.506 7.51a1.211 1.211 0 0 0-.123 1.568l2.66 3.66-2.369 5.723-4.468.711a1.21 1.21 0 0 0-1.02 1.196l.004 10.618c0 .595.434 1.103 1.022 1.196l4.47.708 2.371 5.719-2.657 3.663a1.21 1.21 0 0 0 .124 1.568l7.51 7.505a1.21 1.21 0 0 0 1.568.123l3.66-2.659 5.723 2.368.711 4.468c.094.588.6 1.02 1.196 1.02l10.618-.004c.596 0 1.103-.433 1.196-1.021l.708-4.47 5.72-2.372 3.663 2.658a1.21 1.21 0 0 0 1.567-.125l7.505-7.51c.421-.421.474-1.086.124-1.568l-2.66-3.66 2.369-5.723 4.467-.711a1.21 1.21 0 0 0 1.02-1.196z"/><path id="o1qkd" d="M971.042 1842.262a3.379 3.379 0 0 0-4.773 0 3.379 3.379 0 0 0 0 4.773l.06.059a4.31 4.31 0 0 1-2.581-1.24 4.335 4.335 0 0 1-1.118-4.171 1.21 1.21 0 0 0-.313-1.169l-6.238-6.238a1.211 1.211 0 0 0-1.167-.314 4.306 4.306 0 0 1-4.02-.963 4.338 4.338 0 0 1-1.388-2.73l.07.07a3.379 3.379 0 0 0 4.773 0 3.379 3.379 0 0 0 0-4.773l-.057-.057a4.31 4.31 0 0 1 2.554 1.236 4.336 4.336 0 0 1 1.119 4.168 1.21 1.21 0 0 0 .314 1.167l6.241 6.242a1.21 1.21 0 0 0 1.166.314 4.308 4.308 0 0 1 4.015.965 4.337 4.337 0 0 1 1.386 2.703zm.286-4.454a6.707 6.707 0 0 0-5.56-1.66l-5.317-5.319a6.767 6.767 0 0 0-1.894-5.797 6.733 6.733 0 0 0-7.272-1.49 1.21 1.21 0 0 0-.407 1.98l1.756 1.756a.954.954 0 0 1-1.348 1.348l-1.762-1.762a1.21 1.21 0 0 0-1.978.402 6.77 6.77 0 0 0 1.718 7.525 6.704 6.704 0 0 0 5.565 1.66l5.313 5.313a6.766 6.766 0 0 0 1.893 5.803 6.727 6.727 0 0 0 7.292 1.482 1.21 1.21 0 0 0 .403-1.979l-1.748-1.748a.954.954 0 0 1 1.348-1.348l1.744 1.744a1.21 1.21 0 0 0 1.98-.405 6.774 6.774 0 0 0-1.726-7.505z"/><path id="o1qke" d="M971.357 1827.652a14.075 14.075 0 0 0-7.967-5.05 1.21 1.21 0 1 0-.531 2.363 11.646 11.646 0 0 1 6.591 4.18 1.209 1.209 0 0 0 1.7.207c.527-.412.62-1.173.207-1.7z"/><path id="o1qkf" d="M973.67 1832.019l-.017-.055a1.211 1.211 0 0 0-2.305.744l.016.048a1.212 1.212 0 0 0 2.306-.737z"/></defs><g><g transform="translate(-963 -1822)"><g><g><g><use fill="#ffe600" xlink:href="#o1qka"/></g></g></g><g><g><g><use fill="#ffe600" xlink:href="#o1qkb"/></g></g></g><g><g><g><use fill="#ffe600" xlink:href="#o1qkc"/></g></g></g><g><g><g><use fill="#ffe600" xlink:href="#o1qkd"/></g></g></g><g><g><g><use fill="#ffe600" xlink:href="#o1qke"/></g></g></g><g><g><g><use fill="#ffe600" xlink:href="#o1qkf"/></g></g></g></g></g></svg>