<svg xmlns="http://www.w3.org/2000/svg" xmlns:xlink="http://www.w3.org/1999/xlink" width="58" height="58" viewBox="0 0 58 58"><defs><path id="hlx0a" d="M1223.224 1826.082l-3.191-.455a3.301 3.301 0 0 0-3.108 5.248l1.933 2.579-3.52 2.64-1.935-2.577a3.301 3.301 0 0 0-5.91 1.513l-.445 3.196-4.356-.623.455-3.191a3.301 3.301 0 0 0-5.249-3.109l-2.578 1.934-2.64-3.521 2.576-1.935a3.301 3.301 0 0 0-1.513-5.909l-3.19-.456.622-4.356 3.191.456a3.301 3.301 0 0 0 3.109-5.25l-1.94-2.58 3.521-2.64 1.934 2.578a3.301 3.301 0 0 0 5.91-1.513l.455-3.191 4.356.621-.455 3.191a3.301 3.301 0 0 0 5.249 3.108l2.578-1.933 2.64 3.52-2.577 1.935a3.301 3.301 0 0 0 1.513 5.91l3.19.455zm-44.911 16.486a4.395 4.395 0 1 1-4.127-5.883h.042a20.84 20.84 0 0 0 4.085 5.883zm1.709 1.55c.6.492 1.228.95 1.88 1.37a5.371 5.371 0 0 1 2.217 2.816l-2.36 2.356-2.285-1.576a2.2 2.2 0 0 0-3.403 1.36l-.576 2.747h-2.616l-.577-2.743a2.2 2.2 0 0 0-3.402-1.36l-2.287 1.572-2.004-2 1.574-2.285a2.2 2.2 0 0 0-1.358-3.403l-2.743-.578v-2.614l2.743-.578a2.2 2.2 0 0 0 1.36-3.397l-1.576-2.29 2.004-2.001 2.288 1.575a2.2 2.2 0 0 0 3.401-1.36l.193-.915c.176 1.268.468 2.517.873 3.731a6.602 6.602 0 1 0 6.654 9.573zm8.76 18.976h8.803v1.1a2.2 2.2 0 0 1-2.201 2.202h-4.402a2.2 2.2 0 0 1-2.2-2.201zm0-4.401h8.803v2.2h-8.803zm36.471-38.989l-.002-.002-4.281-.61a1.1 1.1 0 0 1-.505-1.97l3.46-2.595a1.1 1.1 0 0 0 .22-1.54l-3.962-5.282a1.1 1.1 0 0 0-1.54-.22l-3.459 2.594a1.1 1.1 0 0 1-1.754-1.035l.612-4.28a1.1 1.1 0 0 0-.933-1.246h-.001l-6.532-.933a1.1 1.1 0 0 0-1.246.932l-.611 4.281a1.1 1.1 0 0 1-1.97.505l-2.594-3.46a1.1 1.1 0 0 0-1.54-.22l-3.307 2.482a21.291 21.291 0 0 0-4.5 0 20.907 20.907 0 0 0-18.435 18.747c-.03.312-.04.62-.056.93h-.33a1.1 1.1 0 0 0-1.077.88l-.76 3.616-3.046-2.1a1.1 1.1 0 0 0-1.403.127l-3.3 3.301a1.1 1.1 0 0 0-.128 1.402l2.09 3.04-3.617.76a1.1 1.1 0 0 0-.865 1.078v4.402c0 .52.365.97.874 1.077l3.617.76-2.09 3.04a1.1 1.1 0 0 0 .127 1.403l3.301 3.3a1.1 1.1 0 0 0 1.403.128l3.04-2.096.76 3.617a1.1 1.1 0 0 0 1.077.88h4.401a1.1 1.1 0 0 0 1.078-.873l.76-3.617 3.04 2.09a1.1 1.1 0 0 0 1.402-.127l1.71-1.715v3.136a4.387 4.387 0 0 0 2.2 3.79v6.114c0 2.43 1.97 4.401 4.402 4.401h4.401c2.43 0 4.402-1.97 4.402-4.401v-6.114a4.387 4.387 0 0 0 2.2-3.79v-4.355a5.392 5.392 0 0 1 2.545-4.492 21.117 21.117 0 0 0 2.59-1.98l-1.467-1.64c-.726.65-1.5 1.243-2.319 1.773a7.58 7.58 0 0 0-3.55 6.34v4.354a2.2 2.2 0 0 1-2.2 2.201h-8.803a2.2 2.2 0 0 1-2.201-2.2v-4.447a7.403 7.403 0 0 0-3.49-6.21c-8.722-5.48-11.35-16.994-5.87-25.715a18.65 18.65 0 0 1 15.726-8.728c-.017.04-.031.08-.043.12a1.1 1.1 0 0 0 .21.816l2.594 3.458c.273.354.3.84.066 1.222-.226.383-.66.593-1.1.529l-4.281-.612a1.1 1.1 0 0 0-1.246.933v.001l-.934 6.535a1.1 1.1 0 0 0 .933 1.246h.001l4.28.612a1.1 1.1 0 0 1 .506 1.97l-3.459 2.593a1.1 1.1 0 0 0-.22 1.54l3.961 5.283a1.1 1.1 0 0 0 1.54.22l3.46-2.594a1.1 1.1 0 0 1 1.749 1.035l-.61 4.28a1.1 1.1 0 0 0 .932 1.247l6.537.934a1.1 1.1 0 0 0 1.246-.934l.61-4.28a1.1 1.1 0 0 1 1.97-.506l2.594 3.458a1.1 1.1 0 0 0 1.54.22l5.283-3.96a1.1 1.1 0 0 0 .22-1.541l-2.594-3.459a1.082 1.082 0 0 1-.066-1.221c.22-.39.66-.6 1.1-.528l4.281.61a1.1 1.1 0 0 0 1.246-.933l.933-6.536a1.1 1.1 0 0 0-.933-1.246z"/><path id="hlx0b" d="M1207.198 1828.173a6.602 6.602 0 1 1 6.602-6.602 6.61 6.61 0 0 1-6.602 6.602zm0-15.405a8.803 8.803 0 1 0 8.803 8.803 8.813 8.813 0 0 0-8.803-8.803z"/><path id="hlx0c" d="M1192.083 1854.291v-3.3h2.2v3.3z"/><path id="hlx0d" d="M1188.37 1840.183c-6.793-2.653-10.148-10.31-7.494-17.104a13.205 13.205 0 0 1 5.265-6.37l-1.177-1.862c-7.198 4.535-9.358 14.047-4.822 21.246a15.405 15.405 0 0 0 7.43 6.138 7.025 7.025 0 0 1 4.51 6.559h2.202a9.207 9.207 0 0 0-5.914-8.607z"/><path id="hlx0e" d="M1214.09 1845.488v-2.2h7.703v2.2z"/><path id="hlx0f" d="M1218.889 1856.236l-6.603-5.501 1.409-1.691 6.602 5.5z"/><path id="hlx0g" d="M1207.488 1859.793v-7.702h2.2v7.702z"/><path id="hlx0h" d="M1161.538 1823.446l-.533-2.134 8.802-2.2.534 2.133z"/><path id="hlx0i" d="M1170.535 1815.573l-7.702-5.501 1.278-1.79 7.702 5.501z"/><path id="hlx0j" d="M1174.512 1811.647l-2.251-8.802 2.132-.545 2.25 8.802z"/></defs><g><g transform="translate(-1164 -1802)"><g><g><g><use fill="#ffe600" xlink:href="#hlx0a"/></g></g></g><g><g><g><use fill="#ffe600" xlink:href="#hlx0b"/></g></g></g><g><g><g><use fill="#ffe600" xlink:href="#hlx0c"/></g></g></g><g><g><g><use fill="#ffe600" xlink:href="#hlx0d"/></g></g></g><g><g><g><use fill="#ffe600" xlink:href="#hlx0e"/></g></g></g><g><g><g><use fill="#ffe600" xlink:href="#hlx0f"/></g></g></g><g><g><g><use fill="#ffe600" xlink:href="#hlx0g"/></g></g></g><g><g><g><use fill="#ffe600" xlink:href="#hlx0h"/></g></g></g><g><g><g><use fill="#ffe600" xlink:href="#hlx0i"/></g></g></g><g><g><g><use fill="#ffe600" xlink:href="#hlx0j"/></g></g></g></g></g></svg>