<svg xmlns="http://www.w3.org/2000/svg" xmlns:xlink="http://www.w3.org/1999/xlink" width="68" height="65" viewBox="0 0 68 65"><defs><path id="1reda" d="M1705.164 271.068a1.33 1.33 0 1 0-1.33-2.302 1.33 1.33 0 0 0 1.33 2.302z"/><path id="1redb" d="M1690.512 274.924a6.635 6.635 0 0 1-.892-3.316 6.67 6.67 0 0 1 3.324-5.76l10.357-5.98 6.644 11.508-10.357 5.98a6.652 6.652 0 0 1-9.076-2.432zm29.746-35.702l15.36 26.607-23.182 4.547-7.05-12.21zm2.224-2.848a1.3 1.3 0 0 1 1.151-.637c.227.002.792.073 1.133.664l15.456 26.77a1.328 1.328 0 0 1-1.118 1.993c-.18.004-.264.037-.728.124l-16.35-28.318c.343-.442.388-.484.456-.596zm13.941 9.585l1.837 3.181-1.638 2.48-3.165-5.483zm-26.122 31.349l-1.329-2.302 2.302-1.329 1.329 2.302zm3.014 10.537c.734 1.27.3 2.894-.974 3.63a2.661 2.661 0 0 1-3.63-.973l-6.644-11.51 4.604-2.657c7.69 13.32 6.52 11.297 6.644 11.51zm-13.597-7.606l6.692 11.592c1.444 2.504 4.692 3.43 7.261 1.946a5.313 5.313 0 0 0 1.945-7.261l-3.986-6.906 3.452-1.993a1.33 1.33 0 0 0 .486-1.816l-1.728-2.992 25.453-4.993c2.953-.16 4.723-3.39 3.231-5.973l-4.416-7.649 2.822-4.275c.277-.42.294-.96.042-1.396l-2.658-4.604a1.332 1.332 0 0 0-1.23-.661l-5.113.306-4.902-8.492a3.952 3.952 0 0 0-3.403-1.992h-.05a3.951 3.951 0 0 0-3.357 1.837l-17.359 22.114-11.285 6.515c-4.439 2.562-5.976 8.256-3.405 12.707 2.35 4.07 7.303 5.67 11.508 3.986z"/><path id="1redc" d="M1701.047 271.91a1.329 1.329 0 0 0-1.815-.486l-2.302 1.328a1.33 1.33 0 0 1-1.815-.486 1.329 1.329 0 0 0-2.302 1.329 3.992 3.992 0 0 0 5.446 1.459l2.302-1.329c.635-.367.853-1.18.486-1.815z"/><path id="1redd" d="M1753.024 235.922l-7.404 4.12a1.329 1.329 0 0 0 1.292 2.322l7.404-4.12a1.329 1.329 0 1 0-1.292-2.322z"/><path id="1rede" d="M1752.248 249.684l-5.134-1.375a1.329 1.329 0 1 0-.688 2.567l5.135 1.375a1.329 1.329 0 1 0 .687-2.567z"/><path id="1redf" d="M1739.346 231.094l-1.377 5.134a1.33 1.33 0 0 0 2.567.689l1.377-5.135a1.329 1.329 0 1 0-2.567-.688z"/></defs><g><g transform="translate(-1687 -230)"><g><use fill="#ffe600" xlink:href="#1reda"/></g><g><use fill="#ffe600" xlink:href="#1redb"/></g><g><use fill="#ffe600" xlink:href="#1redc"/></g><g><use fill="#ffe600" xlink:href="#1redd"/></g><g><use fill="#ffe600" xlink:href="#1rede"/></g><g><use fill="#ffe600" xlink:href="#1redf"/></g></g></g></svg>