<svg id="support" xmlns="http://www.w3.org/2000/svg" width="65.281" height="59.298" viewBox="0 0 65.281 59.298"><g id="Group_10" data-name="Group 10" transform="translate(59.618 38.925)"><g id="Group_9" data-name="Group 9"><path id="Path_23" data-name="Path 23" d="M472.873 332.208l-3.112-3.087a1.275 1.275 0 0 0-1.8 1.811l3.112 3.087a1.275 1.275 0 0 0 1.8-1.811z" transform="translate(-467.587 -328.751)" fill="#ffe600"/></g></g><g id="Group_12" data-name="Group 12" transform="translate(56.442 35.763)"><g id="Group_11" data-name="Group 11"><path id="Path_24" data-name="Path 24" d="M444.854 304.325a1.275 1.275 0 0 0-1.8 0 1.275 1.275 0 1 0 1.806 0z" transform="translate(-442.675 -303.952)" fill="#ffe600"/></g></g><g id="Group_14" data-name="Group 14"><g id="Group_13" data-name="Group 13"><path id="Path_25" data-name="Path 25" d="M47.748 65.478l12.371-12.371a4.8 4.8 0 0 0-2.319-8.078 4.807 4.807 0 0 0-3.542-6.761 4.8 4.8 0 0 0-3.743-6.237 4.808 4.808 0 0 0-6.858-5.731l-.123-.132a8.51 8.51 0 0 0-6.21-2.7H27.31a1.275 1.275 0 0 0-1.275 1.275v1.667a5.793 5.793 0 0 0 .33 1.933 4.806 4.806 0 0 0-6.405 5.948 4.806 4.806 0 0 0-3.748 6.238 4.806 4.806 0 0 0-3.539 6.758 4.806 4.806 0 0 0-2.318 8.081l2.545 2.545L.373 70.437a1.275 1.275 0 1 0 1.8 1.8L14.822 59.6A4.8 4.8 0 0 0 22 55.223h.194A4.8 4.8 0 0 0 27 50.424v-.194h.192a4.8 4.8 0 0 0 4.806-4.8v-.194h.192a4.8 4.8 0 0 0 3.717-7.849l8.465-8.465a2.255 2.255 0 1 1 3.189 3.189L46.3 33.365l-4.529 4.529a1.275 1.275 0 1 0 1.8 1.8l4.529-4.526a2.255 2.255 0 1 1 3.189 3.189l-1.248 1.248-3.28 3.28a1.275 1.275 0 1 0 1.8 1.8l3.28-3.28a2.255 2.255 0 1 1 3.194 3.195l-1.713 1.713-1.567 1.567a1.275 1.275 0 1 0 1.8 1.8l1.568-1.568a2.255 2.255 0 0 1 3.188 3.19L45.943 63.676a17.276 17.276 0 0 1-11.625 5.064 1.275 1.275 0 0 0-.857.374L22.032 80.585a1.275 1.275 0 1 0 1.807 1.8l8.406-8.437a11.853 11.853 0 0 0 7.2 1.852l6.579 6.579a1.275 1.275 0 0 0 1.8-1.8l-6.995-7a1.276 1.276 0 0 0-1.006-.369l-.4.033a9.309 9.309 0 0 1-5.323-1.157l.82-.823a19.815 19.815 0 0 0 12.828-5.785zm-28.956-8.467a2.255 2.255 0 0 1-3.189 0l-3.446-3.446a2.255 2.255 0 1 1 3.189-3.189l3.446 3.446a2.258 2.258 0 0 1 0 3.189zm4.993-4.993a2.258 2.258 0 0 1-3.189 0l-3.446-3.445-1.713-1.713a2.255 2.255 0 1 1 3.189-3.189l5.159 5.159a2.255 2.255 0 0 1 0 3.189zm4.993-4.993a2.258 2.258 0 0 1-3.189 0l-6.407-6.407a2.255 2.255 0 0 1 3.188-3.19l2.92 2.92 3.488 3.488a2.256 2.256 0 0 1 0 3.189zm4.993-4.993a2.258 2.258 0 0 1-3.189 0l-6.407-6.407-1.246-1.246a2.255 2.255 0 0 1 3.189-3.189l7.655 7.655a2.256 2.256 0 0 1 0 3.189zm.335-6.461l-3.5-3.5a5.835 5.835 0 0 0 1.221.13h.028l3.5-.016a1.275 1.275 0 0 0-.006-2.551h-.009l-3.5.016h-.016a3.239 3.239 0 0 1-3.239-3.239v-.4h8.739a5.952 5.952 0 0 1 4.343 1.889l.052.056z" transform="translate(0 -23.462)" fill="#ffe600"/></g></g></svg>