<svg xmlns="http://www.w3.org/2000/svg"><defs><symbol id="icon-youtube" viewBox="0 0 42 32"><path d="M27.628 14.11l-9.334-5.107a1.714 1.714 0 0 0-2.536 1.504v10.131a1.712 1.712 0 0 0 2.536 1.501l-.009.004 9.334-5.019a1.716 1.716 0 0 0 .019-3.01l-.009-.004zm-9.396 5.25v-7.568l6.976 3.817z"/><path d="M41.939 7.552v-.019c-.036-.34-.392-3.365-1.862-4.904A6.858 6.858 0 0 0 35.545.494l-.021-.001a2.536 2.536 0 0 1-.211-.026l-.075-.005C29.653.056 21.218 0 21.133 0h-.015c-.085 0-8.52.056-14.156.462l-.074.005-.2.024a6.694 6.694 0 0 0-4.522 2.197l-.005.006C.759 4.216.359 7.176.314 7.509l-.005.043c-.01.142-.308 3.511-.308 6.892v3.161c0 3.382.298 6.751.31 6.892v.021c.036.334.392 3.304 1.855 4.843a6.994 6.994 0 0 0 4.691 2.104l.015.001c.172.019.32.037.421.054l.097.013c3.225.307 13.337.458 13.765.467h.026c.085 0 8.52-.056 14.105-.462l.074-.008.237-.027a6.542 6.542 0 0 0 4.483-2.141l.005-.006c1.402-1.523 1.806-4.482 1.847-4.815l.005-.043c.013-.142.311-3.511.311-6.892v-3.163c.002-3.382-.296-6.75-.308-6.892zm-2.166 10.054c0 3.13-.273 6.354-.299 6.65-.105.815-.534 2.688-1.214 3.43a4.068 4.068 0 0 1-2.916 1.356h-.006c-.095.01-.184.019-.264.029-5.402.39-13.519.451-13.893.453-.419-.006-10.383-.159-13.509-.449-.16-.026-.334-.046-.516-.067a4.615 4.615 0 0 1-3.167-1.323l.001.001-.023-.025c-.668-.698-1.085-2.45-1.191-3.396-.019-.224-.3-3.485-.3-6.659v-3.161c0-3.127.273-6.347.299-6.649.126-.961.563-2.723 1.215-3.43a4.263 4.263 0 0 1 2.974-1.411h.01l.2-.024c5.481-.393 13.656-.451 13.951-.453s8.466.061 13.898.453l.218.026a4.425 4.425 0 0 1 3.03 1.372l.002.002.01.011c.668.698 1.085 2.481 1.191 3.445.019.211.3 3.48.3 6.661z"/></symbol><symbol id="icon-instagram" viewBox="0 0 32 32"><path d="M23.338 0H8.662A8.672 8.672 0 0 0 0 8.661v14.677a8.672 8.672 0 0 0 8.661 8.661h14.677A8.673 8.673 0 0 0 32 23.338V8.661a8.672 8.672 0 0 0-8.661-8.662h-.001zm6.786 23.339a6.795 6.795 0 0 1-6.786 6.786H8.662a6.793 6.793 0 0 1-6.786-6.785V8.663a6.793 6.793 0 0 1 6.786-6.786h14.676a6.793 6.793 0 0 1 6.786 6.786z"/><path d="M16 7.248a8.75 8.75 0 1 0 8.75 8.75A8.76 8.76 0 0 0 16 7.248h-.001zm0 15.624a6.874 6.874 0 1 1 6.874-6.874 6.88 6.88 0 0 1-6.873 6.876zm8.959-18.729a2.583 2.583 0 1 0 2.583 2.583 2.589 2.589 0 0 0-2.583-2.583zm0 3.295a.71.71 0 1 1 .709-.709.71.71 0 0 1-.71.709z"/></symbol><symbol id="icon-facebook" viewBox="0 0 18 32"><path d="M11.219 32H6.092a1.553 1.553 0 0 1-1.552-1.552V18.889H1.553a1.553 1.553 0 0 1-1.552-1.552v-4.953a1.553 1.553 0 0 1 1.552-1.552h2.989v-2.48A8.415 8.415 0 0 1 6.78 2.296l-.005.006a8.015 8.015 0 0 1 5.944-2.3h-.015l3.908.006a1.553 1.553 0 0 1 1.549 1.552v4.599a1.553 1.553 0 0 1-1.551 1.552h-2.633c-.803 0-1.007.161-1.054.211-.07.081-.158.313-.158.952v1.96h3.649c.279 0 .541.072.768.199l-.008-.004c.482.27.803.776.806 1.357v4.953a1.554 1.554 0 0 1-1.552 1.552h-3.652V30.45a1.554 1.554 0 0 1-1.554 1.552h-.004zm-4.801-1.876h4.477V18.051a1.037 1.037 0 0 1 1.036-1.036h4.17V12.71h-4.172a1.037 1.037 0 0 1-1.036-1.036V8.871a3.181 3.181 0 0 1 .632-2.2l-.006.008a3.168 3.168 0 0 1 2.471-.842l-.013-.001h2.307V1.882l-3.582-.006c-3.876 0-6.286 2.482-6.286 6.475v3.319a1.037 1.037 0 0 1-1.036 1.036H1.875v4.305h3.506a1.038 1.038 0 0 1 1.036 1.037v.002zM16.609 1.882z"/></symbol></defs></svg>