<svg xmlns="http://www.w3.org/2000/svg" xmlns:xlink="http://www.w3.org/1999/xlink" width="4" height="6" viewBox="0 0 4 6"><defs><path id="6nvia" d="M755.364 1848.68l-3.112-3.086a1.275 1.275 0 1 0-1.796 1.811l3.112 3.087a1.27 1.27 0 0 0 1.804-.008c.496-.5.492-1.307-.008-1.803z"/><path id="6nvib" d="M749.081 1842.436a1.275 1.275 0 0 0-1.803 0l-.003.002a1.274 1.274 0 1 0 1.806 1.801 1.276 1.276 0 0 0 0-1.803z"/><path id="6nvic" d="M724.567 1818.41l-3.503-3.503c.397.085.806.13 1.221.13h.028l3.5-.017a1.275 1.275 0 0 0-.006-2.55h-.006l-3.5.016h-.015a3.218 3.218 0 0 1-2.285-.943 3.217 3.217 0 0 1-.954-2.296v-.397h8.738c1.642 0 3.225.69 4.343 1.89l.052.057zm-.336 6.46c-.879.88-2.31.88-3.189 0l-6.407-6.407-.002-.002-1.246-1.246c-.88-.88-.88-2.31 0-3.19a2.25 2.25 0 0 1 1.594-.659c.578 0 1.155.22 1.595.66l7.655 7.655c.426.426.66.992.66 1.595a2.24 2.24 0 0 1-.66 1.595zm-4.992 4.993c-.88.88-2.31.88-3.19 0l-6.407-6.407a2.24 2.24 0 0 1-.66-1.595 2.248 2.248 0 0 1 2.255-2.254c.577 0 1.154.22 1.593.659l6.408 6.408c.426.426.661.992.661 1.595 0 .602-.234 1.168-.66 1.594zm-4.993 4.993c-.88.88-2.31.88-3.19 0l-5.158-5.16a2.258 2.258 0 0 1 1.594-3.849 2.24 2.24 0 0 1 1.595.66l5.159 5.16c.426.426.66.992.66 1.594a2.24 2.24 0 0 1-.66 1.595zm-4.993 4.993a2.24 2.24 0 0 1-1.594.66 2.24 2.24 0 0 1-1.595-.66l-3.446-3.446a2.26 2.26 0 0 1 0-3.19 2.24 2.24 0 0 1 1.595-.66 2.24 2.24 0 0 1 1.595.66l3.446 3.446a2.26 2.26 0 0 1 0 3.19zm28.956 8.467l12.371-12.371a4.811 4.811 0 0 0 0-6.796 4.775 4.775 0 0 0-2.317-1.282 4.79 4.79 0 0 0 .445-2.026c0-1.284-.5-2.49-1.407-3.398a4.767 4.767 0 0 0-2.58-1.338 4.81 4.81 0 0 0-1.165-4.903 4.777 4.777 0 0 0-2.579-1.334c.159-.48.242-.988.242-1.509 0-1.283-.5-2.49-1.407-3.398a4.775 4.775 0 0 0-3.398-1.407c-.815 0-1.6.202-2.295.582l-.123-.133a8.51 8.51 0 0 0-6.21-2.703h-10.014c-.704 0-1.275.57-1.275 1.275v1.672c0 .67.113 1.32.33 1.934a4.799 4.799 0 0 0-1.845-.366c-1.284 0-2.49.5-3.398 1.408a4.81 4.81 0 0 0-1.163 4.906 4.778 4.778 0 0 0-2.582 1.334 4.775 4.775 0 0 0-1.407 3.398c0 .52.083 1.027.24 1.506a4.769 4.769 0 0 0-2.577 1.337 4.814 4.814 0 0 0-.961 5.421 4.773 4.773 0 0 0-2.319 1.285 4.811 4.811 0 0 0 0 6.796l2.544 2.544-12.525 12.525a1.275 1.275 0 0 0 1.804 1.804l12.646-12.646a4.776 4.776 0 0 0 2.375.627c1.283 0 2.49-.5 3.398-1.408a4.792 4.792 0 0 0 1.4-3.592 4.792 4.792 0 0 0 3.592-1.4 4.775 4.775 0 0 0 1.403-3.592 4.79 4.79 0 0 0 3.59-1.4 4.775 4.775 0 0 0 1.403-3.593 4.79 4.79 0 0 0 3.59-1.4 4.812 4.812 0 0 0 .318-6.445l8.466-8.465a2.24 2.24 0 0 1 1.594-.66 2.24 2.24 0 0 1 1.595.66c.426.426.66.992.66 1.595a2.24 2.24 0 0 1-.66 1.594l-5.777 5.777a1.275 1.275 0 0 0 1.803 1.803l4.529-4.528a2.256 2.256 0 0 1 3.189 3.189l-4.529 4.529a1.275 1.275 0 0 0 1.804 1.803l3.28-3.28a2.24 2.24 0 0 1 1.595-.66 2.24 2.24 0 0 1 1.594.66c.426.426.66.992.66 1.594a2.24 2.24 0 0 1-.66 1.595l-3.28 3.28a1.275 1.275 0 0 0 1.803 1.804l1.568-1.568a2.258 2.258 0 0 1 3.189 0 2.26 2.26 0 0 1 0 3.19l-12.372 12.371a17.276 17.276 0 0 1-11.625 5.064c-.323.012-.63.146-.857.375l-11.428 11.47a1.275 1.275 0 1 0 1.806 1.8l8.406-8.436a11.854 11.854 0 0 0 7.2 1.852l6.578 6.579a1.272 1.272 0 0 0 1.804 0 1.275 1.275 0 0 0 0-1.804l-6.995-6.995a1.276 1.276 0 0 0-1.006-.37l-.404.034a9.309 9.309 0 0 1-5.322-1.159l.82-.822a19.815 19.815 0 0 0 12.828-5.785z"/></defs><use fill="#ffe600" xlink:href="#6nvia" transform="translate(-752 -1845)"/><use fill="#ffe600" xlink:href="#6nvib" transform="translate(-752 -1845)"/><use fill="#ffe600" xlink:href="#6nvic" transform="translate(-752 -1845)"/></svg>