<svg id="help" xmlns="http://www.w3.org/2000/svg" width="62" height="62" viewBox="0 0 62 62"><g id="Group_16" data-name="Group 16" transform="translate(16.774 42.804)"><g id="Group_15" data-name="Group 15"><path id="Path_26" data-name="Path 26" d="M140.622 353.869l-.036-.035a1.211 1.211 0 0 0-1.708 1.717l.04.039a1.211 1.211 0 1 0 1.7-1.72z" transform="translate(-138.521 -353.481)" fill="#ffe600"/></g></g><g id="Group_18" data-name="Group 18" transform="translate(11.385 11.392)"><g id="Group_17" data-name="Group 17"><path id="Path_27" data-name="Path 27" d="M127.5 99.813a19.62 19.62 0 0 0-30.881 23.653 1.211 1.211 0 1 0 2.1-1.209 17.2 17.2 0 1 1 6.252 6.288 1.211 1.211 0 1 0-1.221 2.092 19.62 19.62 0 0 0 23.75-30.824z" transform="translate(-94.016 -94.076)" fill="#ffe600"/></g></g><g id="Group_20" data-name="Group 20"><g id="Group_19" data-name="Group 19"><path id="Path_28" data-name="Path 28" d="M62 25.679a1.211 1.211 0 0 0-1.021-1.2l-4.47-.708-2.371-5.719 2.657-3.664a1.211 1.211 0 0 0-.124-1.567L49.156 5.32a1.211 1.211 0 0 0-1.568-.12l-3.66 2.659L38.2 5.488l-.706-4.468A1.211 1.211 0 0 0 36.3 0H25.679a1.211 1.211 0 0 0-1.2 1.021L23.776 5.5l-5.719 2.367-3.664-2.657a1.211 1.211 0 0 0-1.567.124L5.32 12.845a1.211 1.211 0 0 0-.12 1.567l2.659 3.66L5.488 23.8l-4.468.711A1.211 1.211 0 0 0 0 25.7v10.62a1.211 1.211 0 0 0 1.021 1.2l4.47.708 2.371 5.719-2.652 3.66a1.211 1.211 0 0 0 .124 1.567l7.51 7.505a1.211 1.211 0 0 0 1.568.123l3.66-2.659 5.728 2.369.711 4.468A1.211 1.211 0 0 0 25.7 62h10.62a1.211 1.211 0 0 0 1.2-1.021l.708-4.47 5.719-2.371 3.664 2.657a1.211 1.211 0 0 0 1.567-.124l7.505-7.51a1.211 1.211 0 0 0 .123-1.568l-2.659-3.66 2.365-5.733 4.468-.711A1.211 1.211 0 0 0 62 36.3zM55.462 35.92a1.211 1.211 0 0 0-.929.733l-2.886 6.975a1.211 1.211 0 0 0 .139 1.175l2.45 3.372-6.044 6.048-3.375-2.448a1.212 1.212 0 0 0-1.175-.138l-6.971 2.891a1.211 1.211 0 0 0-.732.929l-.653 4.118h-8.55l-.655-4.116a1.211 1.211 0 0 0-.733-.929l-6.975-2.886a1.21 1.21 0 0 0-1.175.139l-3.372 2.45-6.048-6.041 2.448-3.375a1.211 1.211 0 0 0 .138-1.175L7.473 36.67a1.211 1.211 0 0 0-.929-.732l-4.118-.653v-8.55l4.116-.655a1.211 1.211 0 0 0 .929-.733l2.886-6.975a1.211 1.211 0 0 0-.139-1.175l-2.45-3.372 6.044-6.048 3.375 2.448a1.211 1.211 0 0 0 1.175.138l6.968-2.89a1.211 1.211 0 0 0 .732-.929l.652-4.118h8.55l.655 4.116a1.211 1.211 0 0 0 .733.929l6.975 2.886a1.212 1.212 0 0 0 1.175-.139l3.372-2.45 6.048 6.044-2.448 3.375a1.211 1.211 0 0 0-.138 1.175l2.891 6.971a1.211 1.211 0 0 0 .929.732l4.118.653v8.55z" fill="#ffe600"/></g></g><g id="Group_22" data-name="Group 22" transform="translate(17.761 17.758)"><g id="Group_21" data-name="Group 21"><path id="Path_29" data-name="Path 29" d="M170.941 161.4a6.707 6.707 0 0 0-5.559-1.661l-5.318-5.318a6.738 6.738 0 0 0-9.166-7.287 1.211 1.211 0 0 0-.406 1.98l1.756 1.756a.953.953 0 0 1-1.348 1.348l-1.762-1.762a1.211 1.211 0 0 0-1.979.4 6.733 6.733 0 0 0 7.283 9.185l5.313 5.313a6.736 6.736 0 0 0 9.185 7.285 1.211 1.211 0 0 0 .4-1.979l-1.748-1.748a.953.953 0 0 1 1.348-1.348l1.744 1.744a1.211 1.211 0 0 0 1.98-.405 6.774 6.774 0 0 0-1.723-7.503zm-.285 4.453a3.375 3.375 0 0 0-4.773 4.773l.059.059a4.319 4.319 0 0 1-3.7-5.411 1.211 1.211 0 0 0-.314-1.169l-6.238-6.238a1.211 1.211 0 0 0-1.167-.314 4.3 4.3 0 0 1-5.408-3.693l.07.07a3.375 3.375 0 1 0 4.773-4.773l-.057-.057a4.319 4.319 0 0 1 3.673 5.4 1.211 1.211 0 0 0 .314 1.168l6.241 6.241a1.211 1.211 0 0 0 1.166.314 4.3 4.3 0 0 1 5.4 3.668z" transform="translate(-146.67 -146.646)" fill="#ffe600"/></g></g><g id="Group_24" data-name="Group 24" transform="translate(32.617 17.273)"><g id="Group_23" data-name="Group 23"><path id="Path_30" data-name="Path 30" d="M278.8 147.722a14.075 14.075 0 0 0-7.967-5.05 1.211 1.211 0 1 0-.532 2.363 11.646 11.646 0 0 1 6.591 4.18 1.211 1.211 0 0 0 1.907-1.493z" transform="translate(-269.356 -142.643)" fill="#ffe600"/></g></g><g id="Group_26" data-name="Group 26" transform="translate(41.993 25.825)"><g id="Group_25" data-name="Group 25"><path id="Path_31" data-name="Path 31" d="M349.164 214.162l-.018-.055a1.211 1.211 0 0 0-2.3.744l.015.047a1.211 1.211 0 1 0 2.307-.737z" transform="translate(-346.783 -213.268)" fill="#ffe600"/></g></g></svg>