<svg xmlns="http://www.w3.org/2000/svg" xmlns:xlink="http://www.w3.org/1999/xlink" width="23" height="30" viewBox="0 0 23 30"><defs><path id="cclia" d="M922.507 694.444l-4.777-2.388a1.315 1.315 0 0 1-.73-1.182v-1.69c.114-.14.235-.3.36-.476a11.443 11.443 0 0 0 1.476-2.9A1.984 1.984 0 0 0 920 684v-2c0-.482-.18-.948-.5-1.313v-2.659c.028-.275.138-1.912-1.046-3.263-1.027-1.171-2.694-1.765-4.954-1.765s-3.927.594-4.954 1.765c-1.184 1.35-1.074 2.988-1.046 3.263v2.66c-.32.364-.5.83-.5 1.312v2c0 .608.276 1.176.748 1.554.458 1.814 1.417 3.18 1.752 3.619v1.654c0 .484-.264.928-.689 1.16l-4.46 2.433a4.509 4.509 0 0 0-2.351 3.961V700c0 2.373 7.522 3 11.5 3 3.977 0 11.5-.627 11.5-3v-1.522a4.486 4.486 0 0 0-2.493-4.034z"/></defs><use fill="#e0e0e0" xlink:href="#cclia" transform="translate(-902 -673)"/></svg>