<svg xmlns="http://www.w3.org/2000/svg" width="58.772" height="58.772" viewBox="0 0 58.772 58.772">
  <g id="address" transform="translate(-0.001)">
    <path id="Path_56" data-name="Path 56" d="M307.148,260a1.148,1.148,0,1,0,1.148,1.148A1.148,1.148,0,0,0,307.148,260Zm0,0" transform="translate(-270.874 -230.155)" fill="#ffe600"/>
    <path id="Path_57" data-name="Path 57" d="M11.728,42.447.249,56.911a1.148,1.148,0,0,0,.9,1.861H57.625a1.148,1.148,0,0,0,.9-1.861L47.045,42.447a1.147,1.147,0,0,0-.9-.434H36.091l8.585-13.464a18.366,18.366,0,1,0-30.577,0l8.585,13.464H12.627A1.148,1.148,0,0,0,11.728,42.447ZM7.443,51.54h6.941l-3.917,4.936H3.525Zm16.7-7.232,3.147,4.936H19.136l3.918-4.936Zm10.48,0H35.72l3.917,4.936H31.48Zm6.832,7.232,3.917,4.936H13.4l3.918-4.936Zm6.848,4.936L44.39,51.54h6.941l3.917,4.936Zm1.2-7.232H42.568l-3.918-4.936h6.941ZM16.015,27.284a16.07,16.07,0,1,1,26.745,0l-.013.02L29.387,48.257,16.028,27.3Zm4.108,17.025-3.917,4.936H9.264l3.918-4.936Zm0,0" transform="translate(0)" fill="#ffe600"/>
    <path id="Path_58" data-name="Path 58" d="M167.479,82.958A11.479,11.479,0,1,0,156,71.479,11.48,11.48,0,0,0,167.479,82.958Zm0-20.662a9.183,9.183,0,1,1-9.183,9.183A9.193,9.193,0,0,1,167.479,62.3Zm0,0" transform="translate(-138.092 -53.113)" fill="#ffe600"/>
    <path id="Path_59" data-name="Path 59" d="M251.98,292.853a1.148,1.148,0,0,0-1.576.391l-4.243,7.039a1.148,1.148,0,0,0,1.966,1.185l4.243-7.039A1.148,1.148,0,0,0,251.98,292.853Zm0,0" transform="translate(-217.758 -259.09)" fill="#ffe600"/>
  </g>
</svg>
