<svg xmlns="http://www.w3.org/2000/svg" width="15" height="19" viewBox="0 0 15 19"><g><g><g><path fill="#ffe600" d="M1.314 15.715c0-.363.294-.657.657-.657h6.57c.363 0 .657.294.657.657v1.314a.657.657 0 0 1-.657.657H1.97a.657.657 0 0 1-.657-.657zm0-3.942c0-.363.294-.657.657-.657h1.97c.364 0 .658.294.658.657v1.314a.657.657 0 0 1-.657.657H1.97a.657.657 0 0 1-.657-.657zm0-3.942c0-.363.294-.657.657-.657h1.97c.364 0 .658.294.658.657v1.314a.657.657 0 0 1-.657.657H1.97a.657.657 0 0 1-.657-.657zm0-6.241c0-.182.147-.329.328-.329h11.826c.182 0 .329.147.329.329v3.613a.329.329 0 0 1-.329.329H1.642a.329.329 0 0 1-.328-.329zm12.483 7.555a.657.657 0 0 1-.657.657h-1.971a.657.657 0 0 1-.657-.657V7.831c0-.363.294-.657.657-.657h1.97c.364 0 .658.294.658.657zm0 3.942a.657.657 0 0 1-.657.657h-1.971a.657.657 0 0 1-.657-.657v-1.314c0-.363.294-.657.657-.657h1.97c.364 0 .658.294.658.657zm0 3.942a.657.657 0 0 1-.657.657h-1.971a.657.657 0 0 1-.657-.657v-1.314c0-.363.294-.657.657-.657h1.97c.364 0 .658.294.658.657zm-4.6-7.884a.657.657 0 0 1-.656.657H6.57a.657.657 0 0 1-.657-.657V7.831c0-.363.294-.657.657-.657h1.97c.364 0 .658.294.658.657zm0 3.942a.657.657 0 0 1-.656.657H6.57a.657.657 0 0 1-.657-.657v-1.314c0-.363.294-.657.657-.657h1.97c.364 0 .658.294.658.657zM.987 19h13.14a.986.986 0 0 0 .985-.986V.933a.986.986 0 0 0-.986-.986H.985A.985.985 0 0 0 0 .933v17.081c0 .545.441.986.986.986z"/></g><g><path fill="#ffe600" d="M2.628 2.904h.657a.328.328 0 0 0 0-.657h-.657a.329.329 0 0 0 0 .657z"/></g><g><path fill="#ffe600" d="M4.599 2.904h3.285a.329.329 0 0 0 0-.657H4.599a.329.329 0 0 0 0 .657z"/></g></g></g></svg>