<svg xmlns="http://www.w3.org/2000/svg" xmlns:xlink="http://www.w3.org/1999/xlink" width="30" height="55" viewBox="0 0 30 55"><defs><path id="1ccpa" d="M1716.314 548.246h-20.251a5.069 5.069 0 0 0-5.063 5.063v36.452a5.069 5.069 0 0 0 5.063 5.063h18.226V592.8h-18.226a3.041 3.041 0 0 1-3.038-3.038V553.31a3.041 3.041 0 0 1 3.038-3.038h20.251a3.041 3.041 0 0 1 3.038 3.038v29.364h2.025V553.31a5.069 5.069 0 0 0-5.063-5.063z"/><path id="1ccpb" d="M1731.088 575.217l-9.933-12.414-1.582 1.265 9.933 12.413a9.139 9.139 0 0 1 1.997 5.696v24.798h-14.814c-5.231 0-9.488-4.256-9.488-9.488v-3.675h-2.025v3.675c0 6.348 5.165 11.513 11.513 11.513h15.826c.56 0 1.013-.453 1.013-1.013v-25.809a11.18 11.18 0 0 0-2.44-6.961z"/><path id="1ccpc" d="M1708.21 572.125c.71.02 1.372.316 1.859.833l13.608 14.46 1.475-1.389-13.61-14.46a4.657 4.657 0 0 0-3.275-1.468 4.598 4.598 0 0 0-3.341 1.268c-.011.011-.092.088-.102.1a4.674 4.674 0 0 0-.269 6.34l8.722 10.298v3.133c-.002 5.595 3.517 10.671 8.757 12.633l.711-1.896c-4.453-1.668-7.444-5.982-7.443-10.737v-3.504c0-.239-.085-.472-.24-.655l-8.958-10.578c-.897-1.068-.83-2.618.202-3.652.516-.488 1.19-.73 1.904-.726z"/><path id="1ccpd" d="M1713.276 575.585v-25.314h2.026v25.314z"/><path id="1ccpe" d="M1708.214 593.812V581.66h2.025v12.15z"/><path id="1ccpf" d="M1708.214 571.535v-22.276h2.025v22.276z"/><path id="1ccpg" d="M1696.063 566.472V553.31h2.025v13.163z"/><path id="1ccph" d="M1701.126 561.41v-8.101h2.025v8.1z"/><path id="1ccpi" d="M1702.138 587.736h-4.05v-4.05h4.05zm1.013-6.075h-6.076c-.558 0-1.012.452-1.012 1.012v6.076c0 .56.454 1.012 1.012 1.012h6.076c.559 0 1.012-.452 1.012-1.012v-6.076c0-.56-.453-1.012-1.012-1.012z"/></defs><g><g transform="translate(-1696 -549)"><g><g><g><use fill="#ffe600" xlink:href="#1ccpa"/></g></g></g><g><g><g><use fill="#ffe600" xlink:href="#1ccpb"/></g></g></g><g><g><g><use fill="#ffe600" xlink:href="#1ccpc"/></g></g></g><g><g><g><use fill="#ffe600" xlink:href="#1ccpd"/></g></g></g><g><g><g><use fill="#ffe600" xlink:href="#1ccpe"/></g></g></g><g><g><g><use fill="#ffe600" xlink:href="#1ccpf"/></g></g></g><g><g><g><use fill="#ffe600" xlink:href="#1ccpg"/></g></g></g><g><g><g><use fill="#ffe600" xlink:href="#1ccph"/></g></g></g><g><g><g><use fill="#ffe600" xlink:href="#1ccpi"/></g></g></g></g></g></svg>