<svg xmlns="http://www.w3.org/2000/svg" xmlns:xlink="http://www.w3.org/1999/xlink" width="59" height="58" viewBox="0 0 59 58"><defs><path id="38jaa" d="M577.65 257.37v.984h-9.833v-.983zm-9.833 5.9v-2.95h9.834v2.95zm-1.966 1.967h13.766v-9.833h-13.766z"/><path id="38jab" d="M577.65 274.087h-3.933v-2.95h3.934zm-3.933 4.917v-2.95h3.934v2.95zm-5.9-2.95h3.934v2.95h-3.934zm3.934-4.917v2.95h-3.934v-2.95zm-5.9-1.966v11.8h13.766v-11.8z"/><path id="38jac" d="M595.35 257.37v2.95h-9.833v-2.95zm-9.833 5.9v-.983h9.834v.984zm-1.966 1.967h13.766v-9.833h-13.766z"/><path id="38jad" d="M608.134 283.92v-2.95h.983v2.95zm-2.95 0v-2.95h.983v2.95zm-1.967 1.967h-5.9v-16.716h-13.766v16.716h-23.6v-28.114l21.633-16.676 21.633 16.676zm-17.7 0v-14.75h9.834v14.75zm-28.516-1.966v-2.95h.983v2.95zm-2.95 0v-2.95h.983v2.95zm.896-27.03a1.944 1.944 0 0 1-.518-1.492c.044-.554.309-1.05.749-1.392l25.069-19.618 1.338-1.244 1.4 1.297 25.006 19.565c.439.343.704.838.749 1.392a1.946 1.946 0 0 1-.518 1.493c-.697.75-1.83.844-2.642.22l-.396-.306-23.6-18.191-23.217 17.896v.001l-.778.6a1.957 1.957 0 0 1-2.642-.22zm55.154 20.146a.983.983 0 0 0-.984.984v.983h-.983v-.983a.983.983 0 1 0-1.967 0v.983h-.983v-19.867c.512.23 1.055.357 1.599.357a3.943 3.943 0 0 0 3.918-4.25 3.95 3.95 0 0 0-1.497-2.786l-24.943-19.51-2.677-2.485-2.613 2.43-25.006 19.565a3.943 3.943 0 0 0-1.497 2.786 3.943 3.943 0 0 0 1.04 2.987 3.902 3.902 0 0 0 4.477.907v19.867h-.984v-.983a.983.983 0 1 0-1.967 0v.983h-.983v-.983a.983.983 0 1 0-1.967 0v8.85a.983.983 0 1 0 1.967 0v-.984h.983v.984a.983.983 0 1 0 1.967 0v-.984h.983v1.967h47.2v-1.967h.983v.984a.983.983 0 1 0 1.967 0v-.984h.983v.984a.983.983 0 1 0 1.967 0v-8.85a.983.983 0 0 0-.983-.985z"/></defs><g><g transform="translate(-552 -230)"><g><use fill="#ffe600" xlink:href="#38jaa"/></g><g><use fill="#ffe600" xlink:href="#38jab"/></g><g><use fill="#ffe600" xlink:href="#38jac"/></g><g><use fill="#ffe600" xlink:href="#38jad"/></g></g></g></svg>