<svg xmlns="http://www.w3.org/2000/svg" width="48.314" height="48.314" viewBox="0 0 48.314 48.314">
  <g id="instagram" transform="translate(0 0)">
    <path id="Path_45" data-name="Path 45" d="M35.236,0H13.078A13.093,13.093,0,0,0,0,13.078V35.237A13.093,13.093,0,0,0,13.078,48.314H35.236A13.093,13.093,0,0,0,48.314,35.237V13.078A13.093,13.093,0,0,0,35.236,0ZM45.482,35.237A10.257,10.257,0,0,1,35.236,45.482H13.078A10.257,10.257,0,0,1,2.832,35.237V13.078A10.257,10.257,0,0,1,13.078,2.832H35.236A10.257,10.257,0,0,1,45.482,13.078Zm0,0" transform="translate(0 0)" fill="#333"/>
    <path id="Path_46" data-name="Path 46" d="M129.214,116a13.211,13.211,0,1,0,13.211,13.211A13.225,13.225,0,0,0,129.214,116Zm0,23.589a10.378,10.378,0,1,1,10.378-10.378A10.39,10.39,0,0,1,129.214,139.593Zm0,0" transform="translate(-105.057 -105.057)" fill="#333"/>
    <path id="Path_47" data-name="Path 47" d="M361.88,66.285a3.9,3.9,0,1,0,3.9,3.9A3.908,3.908,0,0,0,361.88,66.285Zm0,4.975a1.071,1.071,0,1,1,1.072-1.071A1.073,1.073,0,0,1,361.88,71.26Zm0,0" transform="translate(-324.196 -60.03)" fill="#333"/>
  </g>
</svg>
