<svg xmlns="http://www.w3.org/2000/svg" xmlns:xlink="http://www.w3.org/1999/xlink" width="31" height="32" viewBox="0 0 31 32"><defs><path id="hewaa" d="M978.457 6378.678c0 5.65-4.596 10.245-10.246 10.245h-22.158c-5.65 0-10.246-4.596-10.246-10.245v-22.158c0-5.65 4.597-10.246 10.246-10.246h22.158c5.65 0 10.246 4.596 10.246 10.246zm-10.246-35.237h-22.158c-7.211 0-13.078 5.867-13.078 13.079v22.158c0 7.211 5.867 13.078 13.078 13.078h22.158c7.212 0 13.078-5.867 13.078-13.078v-22.158c0-7.212-5.866-13.079-13.078-13.079z"/><path id="hewab" d="M957.132 6377.977c-5.722 0-10.378-4.656-10.378-10.378 0-5.723 4.656-10.379 10.378-10.379 5.723 0 10.378 4.656 10.378 10.379 0 5.722-4.655 10.378-10.378 10.378zm0-23.589c-7.284 0-13.21 5.926-13.21 13.21 0 7.285 5.926 13.211 13.21 13.211 7.285 0 13.21-5.926 13.21-13.21 0-7.285-5.925-13.211-13.21-13.211z"/><path id="hewac" d="M970.659 6354.671a1.072 1.072 0 1 1 1.072-1.071c0 .59-.482 1.071-1.072 1.071zm0-4.975a3.908 3.908 0 0 0-3.904 3.904 3.908 3.908 0 0 0 3.904 3.904 3.908 3.908 0 0 0 3.904-3.904 3.908 3.908 0 0 0-3.904-3.904z"/></defs><g><g transform="translate(-944 -6349)"><g><use fill="#333" xlink:href="#hewaa"/></g><g><use fill="#333" xlink:href="#hewab"/></g><g><use fill="#333" xlink:href="#hewac"/></g></g></g></svg>