<svg xmlns="http://www.w3.org/2000/svg" xmlns:xlink="http://www.w3.org/1999/xlink" width="18" height="16" viewBox="0 0 18 16"><defs><path id="plq9a" d="M1062.665 1461.85h-.636a.308.308 0 0 0-.318.319v3.177c0 .437-.155.811-.466 1.123a1.53 1.53 0 0 1-1.123.466h-8.262a1.53 1.53 0 0 1-1.122-.466 1.53 1.53 0 0 1-.467-1.123v-8.262c0-.437.156-.81.467-1.122a1.53 1.53 0 0 1 1.122-.467h6.991a.31.31 0 0 0 .229-.09.31.31 0 0 0 .089-.228v-.635a.31.31 0 0 0-.09-.228.31.31 0 0 0-.228-.09h-6.991c-.788 0-1.461.28-2.021.84a2.755 2.755 0 0 0-.839 2.02v8.263c0 .787.28 1.461.84 2.02.559.56 1.232.84 2.02.84h8.262c.788 0 1.462-.28 2.021-.84.56-.559.84-1.233.84-2.02v-3.178a.309.309 0 0 0-.09-.229.309.309 0 0 0-.228-.09z"/><path id="plq9b" d="M1066.607 1453.142a.611.611 0 0 0-.447-.189h-5.084a.61.61 0 0 0-.447.189.61.61 0 0 0-.189.447.61.61 0 0 0 .189.447l1.748 1.747-6.475 6.475a.314.314 0 0 0 0 .457l1.132 1.132a.314.314 0 0 0 .457 0l6.475-6.475 1.747 1.748a.61.61 0 0 0 .447.189.611.611 0 0 0 .447-.189.61.61 0 0 0 .189-.447v-5.084a.611.611 0 0 0-.189-.447z"/></defs><g><g transform="translate(-1049 -1453)"><g><use fill="#ffe600" xlink:href="#plq9a"/></g><g><use fill="#ffe600" xlink:href="#plq9b"/></g></g></g></svg>