<svg xmlns="http://www.w3.org/2000/svg" xmlns:xlink="http://www.w3.org/1999/xlink" width="77" height="74" viewBox="0 0 77 74"><defs><path id="argna" d="M692.33 3032.592a2.42 2.42 0 0 0-2.138 1.486l-22.303-3.24-10.08-20.423a2.418 2.418 0 0 0-1.465-4.413 2.421 2.421 0 0 0-1.377 4.341l-10.114 20.495-22.175 3.222a2.42 2.42 0 0 0-4.643 1.045 2.422 2.422 0 0 0 3.646 1.994l16.053 15.647-3.833 22.347h-.03a2.42 2.42 0 1 0 2.419 1.75l20.08-10.557 20.162 10.6a2.42 2.42 0 1 0 2.308-1.793l-3.833-22.347 16.106-15.7a2.42 2.42 0 1 0 1.216-4.454"/></defs><g><g transform="translate(-618 -3006)"><g><g><use fill="#ffe600" xlink:href="#argna"/></g></g></g></g></svg>