<svg xmlns="http://www.w3.org/2000/svg" xmlns:xlink="http://www.w3.org/1999/xlink" width="19" height="30" viewBox="0 0 19 30"><defs><path id="e0dxa" d="M919.823 773.36H905.3v-18.154h14.523zm-7.262 5.446a1.815 1.815 0 1 1 0-3.631 1.815 1.815 0 0 1 0 3.63zm-3.63-25.87h7.261v.908h-7.261zm9.984-1.361h-12.708a2.731 2.731 0 0 0-2.723 2.723v23.6a2.731 2.731 0 0 0 2.723 2.723h12.708a2.731 2.731 0 0 0 2.723-2.723v-23.6a2.731 2.731 0 0 0-2.723-2.723z"/></defs><g><g transform="translate(-903 -751)"><use fill="#e0e0e0" xlink:href="#e0dxa"/></g></g></svg>