<svg xmlns="http://www.w3.org/2000/svg" xmlns:xlink="http://www.w3.org/1999/xlink" width="19" height="19" viewBox="0 0 19 19"><defs><path id="x43za" d="M921.61 454.011h-7v-7c0-.32-.433-1.011-1.3-1.011-.866 0-1.299.692-1.299 1.01v7.001h-7c-.32 0-1.011.433-1.011 1.3 0 .866.692 1.299 1.01 1.299h7.001v7c0 .32.433 1.011 1.3 1.011.866 0 1.299-.692 1.299-1.01v-7.001h7c.32 0 1.011-.433 1.011-1.3 0-.866-.692-1.299-1.01-1.299z"/></defs><g><g transform="translate(-904 -446)"><use fill="#e0e0e0" xlink:href="#x43za"/></g></g></svg>