<svg xmlns="http://www.w3.org/2000/svg" xmlns:xlink="http://www.w3.org/1999/xlink" width="138" height="182" viewBox="0 0 138 182"><defs><path id="b44ka" d="M1019.092 5818.276a3.847 3.847 0 0 0-3.399 2.362l-35.457-5.151-16.024-32.469a3.844 3.844 0 0 0 1.667-3.318 3.85 3.85 0 1 0-6.186 3.205l-16.079 32.582-35.253 5.121a3.846 3.846 0 0 0-7.382 1.662 3.85 3.85 0 0 0 5.798 3.17l25.52 24.876-6.093 35.526h-.047a3.849 3.849 0 1 0 3.994 3.697 3.88 3.88 0 0 0-.15-.913l31.924-16.784 32.053 16.852a3.849 3.849 0 1 0 7.564.845 3.845 3.845 0 0 0-3.896-3.695l-6.093-35.528 25.606-24.96c.642.413 1.41.643 2.23.612a3.849 3.849 0 1 0-.298-7.692"/><path id="b44kb" d="M925.105 5957.755v-8.284h6.662v1.954h-4.39v1.254h3.976v1.81h-3.976v1.314h4.45v1.952z"/><path id="b44kc" d="M938.619 5957.897c-1.562 0-2.855-.457-3.882-1.372l1.279-1.527c.828.663 1.723.994 2.686.994.63 0 .946-.197.946-.592 0-.173-.095-.318-.284-.43-.188-.116-.56-.236-1.112-.363a12.42 12.42 0 0 1-1.248-.348 4.889 4.889 0 0 1-.96-.462 1.837 1.837 0 0 1-.692-.74c-.149-.3-.224-.658-.224-1.076 0-.782.29-1.419.87-1.912.58-.493 1.358-.74 2.337-.74 1.357 0 2.492.368 3.408 1.102l-1.148 1.62c-.774-.543-1.547-.815-2.32-.815-.267 0-.473.051-.614.152a.476.476 0 0 0-.213.404c0 .189.096.34.289.449.193.11.575.228 1.142.355 1.042.229 1.816.535 2.326.918.508.382.763.944.763 1.686 0 .836-.305 1.495-.911 1.974-.609.483-1.42.723-2.438.723"/><path id="b44kd" d="M947.233 5957.755v-6.271h-2.484v-2.013h7.265v2.013h-2.485v6.271z"/><path id="b44ke" d="M960.687 5957.755v-1.727l3.1-2.366c.387-.293.66-.551.823-.777.162-.224.243-.462.243-.715 0-.26-.085-.465-.254-.615-.17-.15-.392-.224-.668-.224a1.4 1.4 0 0 0-.775.241c-.25.163-.54.436-.871.824l-1.55-1.291c.473-.615.963-1.066 1.467-1.35.504-.284 1.14-.425 1.906-.425.906 0 1.643.246 2.206.74.565.493.846 1.133.846 1.922 0 .623-.149 1.143-.45 1.557-.298.413-.788.861-1.467 1.342l-1.42.995h3.42v1.869z"/><path id="b44kf" d="M977.14 5956.673c-.704.833-1.633 1.248-2.785 1.248-1.151 0-2.077-.412-2.775-1.237-.698-.824-1.047-1.847-1.047-3.07 0-1.208.354-2.226 1.065-3.059.71-.833 1.637-1.249 2.78-1.249 1.153 0 2.077.415 2.775 1.243.698.828 1.048 1.85 1.048 3.065 0 1.207-.354 2.226-1.06 3.06m-3.875-1.422c.284.423.655.634 1.113.634.456 0 .825-.211 1.1-.634.276-.422.414-.968.414-1.638 0-.663-.145-1.208-.432-1.633-.288-.426-.656-.64-1.106-.64-.458 0-.824.21-1.1.627-.277.42-.415.968-.415 1.646 0 .67.142 1.216.426 1.638"/><path id="b44kg" d="M988.146 5956.673c-.706.833-1.635 1.248-2.786 1.248-1.152 0-2.077-.412-2.775-1.237-.699-.824-1.047-1.847-1.047-3.07 0-1.208.354-2.226 1.065-3.059.71-.833 1.637-1.249 2.781-1.249 1.152 0 2.076.415 2.775 1.243.698.828 1.046 1.85 1.046 3.065 0 1.207-.353 2.226-1.059 3.06m-3.874-1.422c.283.423.654.634 1.112.634.456 0 .825-.211 1.1-.634.276-.422.414-.968.414-1.638 0-.663-.145-1.208-.433-1.633-.286-.426-.656-.64-1.105-.64-.459 0-.825.21-1.1.627-.276.42-.415.968-.415 1.646 0 .67.142 1.216.427 1.638"/><path id="b44kh" d="M995.56 5957.921c-1.467 0-2.642-.49-3.526-1.468l1.443-1.443c.616.631 1.274.946 1.977.946.322 0 .581-.076.775-.23a.766.766 0 0 0 .29-.633.704.704 0 0 0-.355-.627c-.237-.15-.57-.226-.995-.226h-.97l-.33-1.195 1.904-1.714h-3.171v-1.86h5.987v1.647l-1.976 1.692c1.428.316 2.143 1.1 2.143 2.354 0 .828-.3 1.494-.894 2-.596.504-1.364.757-2.302.757"/><path id="b44ki" d="M893.096 5937.193v-7.165h5.29c0 .607.131 1.091.397 1.45.265.362.583.64.952.839.37.2.759.337 1.166.413a9.17 9.17 0 0 0 1.066.142c.247 0 .512-.02.796-.058a2.8 2.8 0 0 0 .782-.214c.238-.102.436-.244.597-.425.162-.18.242-.422.242-.725 0-.36-.27-.658-.81-.896a15.771 15.771 0 0 0-2.019-.697c-.806-.227-1.682-.486-2.63-.78a10.935 10.935 0 0 1-2.63-1.208 6.944 6.944 0 0 1-2.019-1.949c-.54-.787-.81-1.786-.81-3 0-1.042.222-1.95.668-2.73a6.053 6.053 0 0 1 1.679-1.904 7.437 7.437 0 0 1 2.188-1.108c.786-.248 1.53-.37 2.232-.37.587 0 1.175.053 1.762.156a7.678 7.678 0 0 1 1.678.497c.53.228 1.01.526 1.436.896.427.37.782.82 1.067 1.351l.283-2.389h4.891v7.136h-5.146c0-.53-.095-.999-.285-1.407a3.042 3.042 0 0 0-.78-1.037 3.335 3.335 0 0 0-1.167-.64 4.593 4.593 0 0 0-1.407-.214c-.209 0-.427.035-.655.1-.227.067-.44.16-.64.284-.198.124-.36.28-.483.47a1.16 1.16 0 0 0-.184.653c0 .494.279.9.839 1.223.558.322 1.255.626 2.09.91.833.284 1.733.592 2.7.924.967.332 1.868.745 2.701 1.237a7.132 7.132 0 0 1 2.09 1.848c.56.739.838 1.668.838 2.786 0 1.12-.232 2.057-.697 2.815a5.904 5.904 0 0 1-1.79 1.863c-.73.483-1.54.83-2.432 1.038-.89.207-1.761.312-2.615.312-.72 0-1.384-.077-1.99-.227a8.156 8.156 0 0 1-1.65-.597 7.277 7.277 0 0 1-1.321-.84 6.749 6.749 0 0 1-.98-.952l-.315 2.19z"/><path id="b44kj" d="M914.989 5917.319h9.212v3.753h-1.763v4.294h5.403v-4.294h-1.678v-3.753h9.241v3.753h-1.65v12.368h1.65v3.753h-9.24v-3.753h1.677v-4.292h-5.403v4.292h1.763v3.753h-9.212v-3.753h1.564v-12.368h-1.564z"/><path id="b44kk" d="M938.53 5917.319h17.145v6.283h-4.919v-2.53h-4.549v3.924h5.403v3.782h-5.403v4.633h4.55v-2.643h4.918v6.425H938.53v-3.782h1.792v-12.339h-1.792z"/><path id="b44kl" d="M958.804 5917.319h9.24c1.649 0 2.986.152 4.009.454 1.023.305 1.824.722 2.402 1.252.578.531.967 1.152 1.165 1.863.2.71.298 1.473.298 2.288a3.768 3.768 0 0 1-1.178 2.771c-.37.352-.807.647-1.31.882a5.4 5.4 0 0 1-1.634.47 4.561 4.561 0 0 1 2.587 1.365c.342.36.616.767.825 1.222.21.455.312.939.312 1.45 0 .607.048 1.081.144 1.42.094.344.274.514.54.514.436 0 .653-.304.653-.91v-.939h1.906v1.564c0 .589-.067 1.157-.2 1.707a3.775 3.775 0 0 1-.683 1.449 3.492 3.492 0 0 1-1.278 1.01c-.531.256-1.195.383-1.99.383-1.877 0-3.267-.463-4.166-1.393-.901-.928-1.35-2.227-1.35-3.895 0-.645-.028-1.175-.086-1.591-.057-.418-.186-.745-.384-.982-.2-.236-.487-.402-.867-.497-.379-.096-.88-.143-1.507-.143v4.407h1.734v3.753h-9.182v-3.753h1.59v-12.396h-1.59zm7.448 3.696v4.834h1.28c.833 0 1.497-.194 1.99-.583.492-.389.739-.961.739-1.72 0-.854-.223-1.488-.668-1.905-.446-.416-1.086-.626-1.92-.626z"/><path id="b44km" d="M981.463 5917.319h9.44v3.753h-1.763v12.34h1.762v3.78h-9.439v-3.78h1.792v-12.34h-1.792z"/><path id="b44kn" d="M994.03 5917.319h17.003v6.283H1006v-2.53h-4.294v4.949h5.402v3.78h-5.402v3.61h2.899v3.782h-10.577v-3.782h1.764v-12.339h-1.764z"/><path id="b44ko" d="M1013.875 5917.319h17.003v6.283h-5.032v-2.53h-4.294v4.949h5.402v3.78h-5.402v3.61h2.9v3.782h-10.577v-3.782h1.764v-12.339h-1.764z"/></defs><g><g transform="translate(-893 -5776)"><g><g><use fill="#ffe600" xlink:href="#b44ka"/></g></g><g><use fill="#fff" xlink:href="#b44kb"/></g><g><use fill="#fff" xlink:href="#b44kc"/></g><g><use fill="#fff" xlink:href="#b44kd"/></g><g><use fill="#fff" xlink:href="#b44ke"/></g><g><g><use fill="#fff" xlink:href="#b44kf"/></g></g><g><g><use fill="#fff" xlink:href="#b44kg"/></g></g><g><g><use fill="#fff" xlink:href="#b44kh"/></g></g><g><use fill="#fff" xlink:href="#b44ki"/></g><g><use fill="#fff" xlink:href="#b44kj"/></g><g><use fill="#fff" xlink:href="#b44kk"/></g><g><use fill="#fff" xlink:href="#b44kl"/></g><g><use fill="#fff" xlink:href="#b44km"/></g><g><use fill="#fff" xlink:href="#b44kn"/></g><g><use fill="#fff" xlink:href="#b44ko"/></g></g></g></svg>