<svg id="support" xmlns="http://www.w3.org/2000/svg" width="65.281" height="59.298" viewBox="0 0 65.281 59.298">
  <g id="Group_10" data-name="Group 10" transform="translate(59.618 38.925)">
    <g id="Group_9" data-name="Group 9">
      <path id="Path_23" data-name="Path 23" d="M472.873,332.208l-3.112-3.087a1.275,1.275,0,0,0-1.8,1.811l3.112,3.087a1.275,1.275,0,0,0,1.8-1.811Z" transform="translate(-467.587 -328.751)" fill="#ffe600"/>
    </g>
  </g>
  <g id="Group_12" data-name="Group 12" transform="translate(56.442 35.763)">
    <g id="Group_11" data-name="Group 11">
      <path id="Path_24" data-name="Path 24" d="M444.854,304.325a1.275,1.275,0,0,0-1.8,0l0,0a1.275,1.275,0,1,0,1.806,0Z" transform="translate(-442.675 -303.952)" fill="#ffe600"/>
    </g>
  </g>
  <g id="Group_14" data-name="Group 14" transform="translate(0)">
    <g id="Group_13" data-name="Group 13">
      <path id="Path_25" data-name="Path 25" d="M47.748,65.478,60.119,53.107A4.8,4.8,0,0,0,57.8,45.029a4.807,4.807,0,0,0-3.542-6.761,4.8,4.8,0,0,0-3.743-6.237A4.808,4.808,0,0,0,43.657,26.3l-.123-.132a8.51,8.51,0,0,0-6.21-2.7H27.31a1.275,1.275,0,0,0-1.275,1.275V26.41a5.793,5.793,0,0,0,.33,1.933,4.806,4.806,0,0,0-6.405,5.948,4.806,4.806,0,0,0-3.748,6.238,4.806,4.806,0,0,0-3.539,6.758,4.806,4.806,0,0,0-2.318,8.081L12.9,57.913.373,70.437a1.275,1.275,0,1,0,1.8,1.8L14.822,59.6A4.8,4.8,0,0,0,22,55.223c.065,0,.129,0,.194,0A4.8,4.8,0,0,0,27,50.424c0-.065,0-.129,0-.194.064,0,.128,0,.192,0a4.8,4.8,0,0,0,4.806-4.8c0-.065,0-.129,0-.194.064,0,.128,0,.192,0a4.8,4.8,0,0,0,3.717-7.849l8.465-8.465a2.255,2.255,0,1,1,3.189,3.189L46.3,33.365l-4.529,4.529a1.275,1.275,0,1,0,1.8,1.8L48.1,35.168a2.255,2.255,0,1,1,3.189,3.189l-1.248,1.248-3.28,3.28a1.275,1.275,0,1,0,1.8,1.8l3.28-3.28A2.255,2.255,0,1,1,55.035,44.6l-1.713,1.713-1.567,1.567a1.275,1.275,0,1,0,1.8,1.8l1.568-1.568a2.255,2.255,0,0,1,3.188,3.19L45.943,63.676A17.276,17.276,0,0,1,34.318,68.74a1.275,1.275,0,0,0-.857.374L22.032,80.585a1.275,1.275,0,1,0,1.807,1.8l8.406-8.437a11.853,11.853,0,0,0,7.2,1.852l6.579,6.579a1.275,1.275,0,0,0,1.8-1.8l-6.995-7a1.276,1.276,0,0,0-1.006-.369l-.4.033A9.309,9.309,0,0,1,34.1,72.086l.82-.823A19.815,19.815,0,0,0,47.748,65.478ZM18.792,57.011a2.255,2.255,0,0,1-3.189,0l-3.446-3.446a2.255,2.255,0,1,1,3.189-3.189l3.446,3.446A2.258,2.258,0,0,1,18.792,57.011Zm4.993-4.993a2.258,2.258,0,0,1-3.189,0L17.15,48.573l-1.713-1.713a2.255,2.255,0,1,1,3.189-3.189l5.159,5.159h0a2.255,2.255,0,0,1,0,3.189Zm4.993-4.993a2.258,2.258,0,0,1-3.189,0l-6.407-6.407a2.255,2.255,0,0,1,3.188-3.19l2.92,2.92,3.488,3.488h0a2.256,2.256,0,0,1,0,3.189Zm4.993-4.993a2.258,2.258,0,0,1-3.189,0l-6.407-6.407,0,0-1.246-1.246a2.255,2.255,0,0,1,3.189-3.189l7.655,7.655a2.256,2.256,0,0,1,0,3.189Zm.335-6.461-3.5-3.5a5.835,5.835,0,0,0,1.221.13h.028l3.5-.016a1.275,1.275,0,0,0-.006-2.551H35.34l-3.5.016h-.016a3.239,3.239,0,0,1-3.239-3.239v-.4h8.739A5.952,5.952,0,0,1,41.667,27.9l.052.056Z" transform="translate(0 -23.462)" fill="#ffe600"/>
    </g>
  </g>
</svg>
