<svg xmlns="http://www.w3.org/2000/svg" xmlns:xlink="http://www.w3.org/1999/xlink">
<defs>
<symbol id="icon-youtube" viewBox="0 0 42 32">
<title>youtube</title>
<path d="M27.628 14.11l-9.334-5.107c-0.237-0.132-0.521-0.21-0.822-0.21-0.947 0-1.714 0.767-1.714 1.714v0 10.126c0 0.001 0 0.003 0 0.005 0 0.945 0.766 1.712 1.712 1.712 0.299 0 0.579-0.076 0.824-0.211l-0.009 0.004 9.334-5.019c0.541-0.295 0.902-0.86 0.902-1.51 0-0.645-0.356-1.207-0.883-1.5l-0.009-0.004zM18.232 19.36v-7.568l6.976 3.817z"></path>
<path d="M41.939 7.552v-0.019c-0.036-0.34-0.392-3.365-1.862-4.904-1.157-1.221-2.752-2.017-4.532-2.135l-0.021-0.001c-0.077-0.007-0.15-0.015-0.211-0.026l-0.075-0.005c-5.585-0.406-14.020-0.462-14.105-0.462h-0.015c-0.085 0-8.52 0.056-14.156 0.462l-0.074 0.005c-0.060 0.008-0.126 0.015-0.2 0.024-1.804 0.126-3.395 0.948-4.522 2.197l-0.005 0.006c-1.402 1.522-1.802 4.482-1.847 4.815l-0.005 0.043c-0.010 0.142-0.308 3.511-0.308 6.892v3.161c0 3.382 0.298 6.751 0.31 6.892v0.021c0.036 0.334 0.392 3.304 1.855 4.843 1.204 1.231 2.855 2.020 4.691 2.104l0.015 0.001c0.172 0.019 0.32 0.037 0.421 0.054l0.097 0.013c3.225 0.307 13.337 0.458 13.765 0.467h0.026c0.085 0 8.52-0.056 14.105-0.462l0.074-0.008c0.071-0.009 0.15-0.018 0.237-0.027 1.786-0.104 3.366-0.909 4.483-2.141l0.005-0.006c1.402-1.523 1.806-4.482 1.847-4.815l0.005-0.043c0.013-0.142 0.311-3.511 0.311-6.892v-3.163c0.002-3.382-0.296-6.75-0.308-6.892zM39.773 17.606c0 3.13-0.273 6.354-0.299 6.65-0.105 0.815-0.534 2.688-1.214 3.43-0.724 0.807-1.76 1.322-2.916 1.356l-0.006 0c-0.095 0.010-0.184 0.019-0.264 0.029-5.402 0.39-13.519 0.451-13.893 0.453-0.419-0.006-10.383-0.159-13.509-0.449-0.16-0.026-0.334-0.046-0.516-0.067-1.235-0.020-2.349-0.521-3.167-1.323l0.001 0.001-0.023-0.025c-0.668-0.698-1.085-2.45-1.191-3.396-0.019-0.224-0.3-3.485-0.3-6.659v-3.161c0-3.127 0.273-6.347 0.299-6.649 0.126-0.961 0.563-2.723 1.215-3.43 0.743-0.824 1.796-1.356 2.974-1.411l0.010-0 0.2-0.024c5.481-0.393 13.656-0.451 13.951-0.453s8.466 0.061 13.898 0.453l0.218 0.026c1.196 0.050 2.263 0.567 3.030 1.372l0.002 0.002 0.010 0.011c0.668 0.698 1.085 2.481 1.191 3.445 0.019 0.211 0.3 3.48 0.3 6.661z"></path>
</symbol>
<symbol id="icon-instagram" viewBox="0 0 32 32">
<title>instagram</title>
<path d="M23.338 0h-14.676c-4.782 0.006-8.656 3.88-8.662 8.661v14.677c0.006 4.781 3.881 8.656 8.661 8.661h14.677c4.781-0.006 8.656-3.88 8.662-8.661v-14.677c-0.006-4.782-3.88-8.656-8.661-8.662h-0.001zM30.124 23.339c-0.005 3.746-3.040 6.781-6.786 6.786h-14.676c-3.746-0.004-6.782-3.040-6.786-6.785v-14.677c0.004-3.746 3.040-6.782 6.786-6.786h14.676c3.746 0.004 6.782 3.040 6.786 6.786v0z"></path>
<path d="M16 7.248c-4.833 0-8.75 3.918-8.75 8.75s3.918 8.75 8.75 8.75c4.833 0 8.75-3.918 8.75-8.75v0c-0.005-4.83-3.92-8.745-8.75-8.75h-0.001zM16 22.872c-3.796 0-6.874-3.077-6.874-6.874s3.077-6.874 6.874-6.874c3.796 0 6.874 3.077 6.874 6.874v0c-0.003 3.796-3.078 6.872-6.873 6.876h-0z"></path>
<path d="M24.959 4.143c-1.427 0-2.583 1.157-2.583 2.583s1.157 2.583 2.583 2.583c1.427 0 2.583-1.156 2.583-2.583v0c-0.003-1.425-1.158-2.58-2.583-2.583h-0zM24.959 7.438c-0.391-0-0.709-0.318-0.709-0.709s0.318-0.709 0.709-0.709 0.709 0.318 0.709 0.709v0c-0.001 0.392-0.318 0.709-0.71 0.709h-0z"></path>
</symbol>
<symbol id="icon-facebook" viewBox="0 0 18 32">
<title>facebook</title>
<path d="M11.219 32h-5.127c-0.857-0.001-1.551-0.695-1.552-1.552v-11.559h-2.987c-0.857-0.001-1.551-0.695-1.552-1.552v-4.953c0.001-0.857 0.695-1.551 1.552-1.552h2.989v-2.48c-0.004-0.096-0.006-0.209-0.006-0.323 0-2.213 0.851-4.227 2.244-5.733l-0.005 0.006c1.45-1.426 3.441-2.306 5.637-2.306 0.103 0 0.205 0.002 0.307 0.006l-0.015-0 3.908 0.006c0.856 0.003 1.548 0.696 1.549 1.552v4.599c-0.001 0.857-0.695 1.551-1.551 1.552h-2.633c-0.803 0-1.007 0.161-1.054 0.211-0.070 0.081-0.158 0.313-0.158 0.952v1.96h3.642c0.002 0 0.005-0 0.007-0 0.279 0 0.541 0.072 0.768 0.199l-0.008-0.004c0.482 0.27 0.803 0.776 0.806 1.357v4.953c-0.001 0.857-0.696 1.551-1.552 1.552h-3.652v11.559c-0.001 0.858-0.697 1.552-1.554 1.552-0.001 0-0.002 0-0.004 0h0zM6.418 30.124h4.477v-12.073c0.001-0.572 0.464-1.035 1.036-1.036h4.17v-4.305h-4.172c-0.572-0.001-1.035-0.464-1.036-1.036v-2.803c-0.008-0.083-0.012-0.179-0.012-0.276 0-0.723 0.24-1.389 0.644-1.924l-0.006 0.008c0.567-0.53 1.33-0.856 2.17-0.856 0.101 0 0.202 0.005 0.301 0.014l-0.013-0.001h2.307v-3.954l-3.582-0.006c-3.876 0-6.286 2.482-6.286 6.475v3.319c-0.001 0.572-0.464 1.035-1.036 1.036h-3.505v4.305h3.506c0.572 0.001 1.036 0.465 1.036 1.037 0 0.001 0 0.001 0 0.002v-0zM16.609 1.882v0z"></path>
</symbol>
</defs>
</svg>
