<svg id="project-management" xmlns="http://www.w3.org/2000/svg" width="66.316" height="66.297" viewBox="0 0 66.316 66.297">
  <g id="Group_28" data-name="Group 28" transform="translate(0 0.274)">
    <g id="Group_27" data-name="Group 27">
      <path id="Path_32" data-name="Path 32" d="M65.372,19.188h0l0,0-4.28-.611a1.1,1.1,0,0,1-.505-1.97l3.46-2.595a1.1,1.1,0,0,0,.22-1.541L60.3,7.188a1.1,1.1,0,0,0-1.541-.22L55.3,9.563a1.1,1.1,0,0,1-1.754-1.035l.612-4.28A1.1,1.1,0,0,0,53.228,3h0l-6.532-.933A1.1,1.1,0,0,0,45.449,3h0l-.612,4.28a1.1,1.1,0,0,1-1.97.505l-2.594-3.46a1.1,1.1,0,0,0-1.541-.22L35.427,6.588a21.291,21.291,0,0,0-4.5,0A20.907,20.907,0,0,0,12.492,25.336c-.03.311-.041.621-.056.93h-.33a1.1,1.1,0,0,0-1.076.88l-.76,3.616-3.046-2.1a1.1,1.1,0,0,0-1.4.128l-3.3,3.3a1.1,1.1,0,0,0-.128,1.4l2.091,3.04-3.617.76A1.1,1.1,0,0,0,0,38.37v4.4a1.1,1.1,0,0,0,.874,1.077l3.617.76L2.4,47.649a1.1,1.1,0,0,0,.128,1.4l3.3,3.3a1.1,1.1,0,0,0,1.4.128l3.04-2.1L11.032,54a1.1,1.1,0,0,0,1.076.88h4.4a1.1,1.1,0,0,0,1.077-.874l.76-3.617,3.04,2.091a1.1,1.1,0,0,0,1.4-.128L24.5,50.639v3.136a4.387,4.387,0,0,0,2.2,3.79v6.114a4.4,4.4,0,0,0,4.4,4.4h4.4a4.4,4.4,0,0,0,4.4-4.4V57.565a4.387,4.387,0,0,0,2.2-3.79V49.42a5.392,5.392,0,0,1,2.545-4.492,21.117,21.117,0,0,0,2.59-1.981l-1.468-1.64a18.733,18.733,0,0,1-2.319,1.773A7.579,7.579,0,0,0,39.9,49.42v4.355a2.2,2.2,0,0,1-2.2,2.2H28.9a2.2,2.2,0,0,1-2.2-2.2V49.328a7.4,7.4,0,0,0-3.49-6.211A18.65,18.65,0,0,1,33.065,8.676a1.2,1.2,0,0,0-.043.12,1.1,1.1,0,0,0,.21.815l2.594,3.458a1.077,1.077,0,0,1,.066,1.221,1.094,1.094,0,0,1-1.1.529l-4.28-.612a1.1,1.1,0,0,0-1.245.933h0l-.934,6.535a1.1,1.1,0,0,0,.933,1.245h0l4.28.612a1.1,1.1,0,0,1,.505,1.97L30.593,28.1a1.1,1.1,0,0,0-.22,1.541l3.961,5.282a1.1,1.1,0,0,0,1.541.22l3.46-2.594a1.1,1.1,0,0,1,1.749,1.035l-.611,4.28a1.1,1.1,0,0,0,.933,1.246h0l6.536.934a1.219,1.219,0,0,0,.155.01,1.1,1.1,0,0,0,1.09-.944l.611-4.28a1.1,1.1,0,0,1,1.97-.505l2.595,3.458A1.1,1.1,0,0,0,55.9,38l5.282-3.961A1.1,1.1,0,0,0,61.4,32.5l-2.594-3.458a1.082,1.082,0,0,1-.066-1.221,1.069,1.069,0,0,1,1.1-.528l4.28.611a1.1,1.1,0,0,0,1.246-.933h0l.933-6.536A1.1,1.1,0,0,0,65.372,19.188ZM28.9,58.176h8.8v2.2H28.9Zm0,4.4h8.8v1.1a2.2,2.2,0,0,1-2.2,2.2H31.1a2.2,2.2,0,0,1-2.2-2.2ZM20.14,43.6a20.8,20.8,0,0,0,1.881,1.37,5.371,5.371,0,0,1,2.217,2.816l-2.36,2.356-2.285-1.576a2.2,2.2,0,0,0-3.4,1.359l-.577,2.748H13l-.577-2.743a2.2,2.2,0,0,0-3.4-1.359L6.732,50.144l-2-2L6.3,45.859a2.2,2.2,0,0,0-1.358-3.4L2.2,41.878V39.263l2.743-.578a2.2,2.2,0,0,0,1.359-3.4L4.727,33l2-2L9.02,32.573a2.2,2.2,0,0,0,3.4-1.36l.193-.916a20.955,20.955,0,0,0,.873,3.731A6.6,6.6,0,1,0,20.14,43.6Zm-1.709-1.55A4.395,4.395,0,1,1,14.3,36.169h.042A20.84,20.84,0,0,0,18.431,42.051ZM63.342,25.566l-3.191-.456a3.3,3.3,0,0,0-3.107,5.249l1.933,2.578-3.521,2.641L53.521,33a3.3,3.3,0,0,0-5.909,1.513l-.446,3.2-4.356-.623.456-3.191a3.3,3.3,0,0,0-5.249-3.109L35.439,32.72,32.8,29.2l2.577-1.934a3.3,3.3,0,0,0-1.513-5.909L30.671,20.9l.623-4.356L34.485,17a3.3,3.3,0,0,0,3.109-5.249l-1.94-2.58,3.521-2.641,1.934,2.578a3.3,3.3,0,0,0,5.909-1.513L47.474,4.4l4.356.622-.456,3.191a3.3,3.3,0,0,0,5.249,3.107L59.2,9.39l2.641,3.521-2.578,1.934a3.3,3.3,0,0,0,1.513,5.909l3.191.456Z" transform="translate(0 -2.057)" fill="#ffe600"/>
    </g>
  </g>
  <g id="Group_30" data-name="Group 30" transform="translate(38.513 10.468)">
    <g id="Group_29" data-name="Group 29">
      <path id="Path_33" data-name="Path 33" d="M288.8,76.171a8.8,8.8,0,1,0,8.8,8.8A8.8,8.8,0,0,0,288.8,76.171Zm0,15.405a6.6,6.6,0,1,1,6.6-6.6A6.6,6.6,0,0,1,288.8,91.576Z" transform="translate(-280 -76.171)" fill="#ffe600"/>
    </g>
  </g>
  <g id="Group_32" data-name="Group 32" transform="translate(32.202 48.691)">
    <g id="Group_31" data-name="Group 31">
      <rect id="Rectangle_33" data-name="Rectangle 33" width="2.201" height="3.301" fill="#ffe600"/>
    </g>
  </g>
  <g id="Group_34" data-name="Group 34" transform="translate(17.887 12.548)">
    <g id="Group_33" data-name="Group 33">
      <path id="Path_34" data-name="Path 34" d="M140.646,116.627a13.2,13.2,0,0,1-2.229-23.474l-1.176-1.862a15.405,15.405,0,0,0,2.607,27.384,7.025,7.025,0,0,1,4.512,6.558h2.2A9.207,9.207,0,0,0,140.646,116.627Z" transform="translate(-130.044 -91.291)" fill="#ffe600"/>
    </g>
  </g>
  <g id="Group_36" data-name="Group 36" transform="translate(54.209 40.988)">
    <g id="Group_35" data-name="Group 35">
      <rect id="Rectangle_34" data-name="Rectangle 34" width="7.703" height="2.201" fill="#ffe600"/>
    </g>
  </g>
  <g id="Group_38" data-name="Group 38" transform="translate(52.405 46.744)">
    <g id="Group_37" data-name="Group 37" transform="translate(0 0)">
      <rect id="Rectangle_35" data-name="Rectangle 35" width="2.201" height="8.594" transform="matrix(0.64, -0.768, 0.768, 0.64, 0, 1.691)" fill="#ffe600"/>
    </g>
  </g>
  <g id="Group_40" data-name="Group 40" transform="translate(47.607 49.791)">
    <g id="Group_39" data-name="Group 39">
      <rect id="Rectangle_36" data-name="Rectangle 36" width="2.201" height="7.703" fill="#ffe600"/>
    </g>
  </g>
  <g id="Group_42" data-name="Group 42" transform="translate(1.124 16.812)">
    <g id="Group_41" data-name="Group 41" transform="translate(0 0)">
      <rect id="Rectangle_37" data-name="Rectangle 37" width="9.074" height="2.2" transform="translate(0 2.2) rotate(-14.035)" fill="#ffe600"/>
    </g>
  </g>
  <g id="Group_44" data-name="Group 44" transform="translate(2.952 5.982)">
    <g id="Group_43" data-name="Group 43" transform="translate(0)">
      <rect id="Rectangle_38" data-name="Rectangle 38" width="2.2" height="9.465" transform="matrix(0.581, -0.814, 0.814, 0.581, 0, 1.79)" fill="#ffe600"/>
    </g>
  </g>
  <g id="Group_46" data-name="Group 46" transform="translate(12.38 0)">
    <g id="Group_45" data-name="Group 45" transform="translate(0)">
      <rect id="Rectangle_39" data-name="Rectangle 39" width="2.201" height="9.086" transform="matrix(0.969, -0.248, 0.248, 0.969, 0, 0.545)" fill="#ffe600"/>
    </g>
  </g>
</svg>
