<svg xmlns="http://www.w3.org/2000/svg" xmlns:xlink="http://www.w3.org/1999/xlink" width="54" height="60" viewBox="0 0 54 60"><defs><path id="adtma" d="M248.167 276.409c0 5.868-2.512 11.372-6.719 14.722-1.34 1.067-2.909 1.843-4.096 2.34-1.117-.47-2.616-1.227-4.003-2.332a16.684 16.684 0 0 1-1.429-1.28c-3.4-3.415-5.386-8.308-5.386-13.45v-8.562a23.049 23.049 0 0 0 1.203-.237c4.422-.99 7.781-3.095 9.614-4.336 1.995 1.352 5.8 3.727 10.817 4.573v8.562zm-49.166 10.023a6.902 6.902 0 0 1 3.597-6.061l8.773-4.786a4.563 4.563 0 0 0 2.38-4.008v-3.594a.988.988 0 0 0-.23-.63c-.023-.03-2.438-2.966-3.353-6.949a.983.983 0 0 0-.423-.606 1.96 1.96 0 0 1-.911-1.649v-3.933c0-.552.234-1.066.659-1.45a.986.986 0 0 0 .324-.73v-5.687a.952.952 0 0 0-.009-.129c-.003-.027-.337-2.751 1.578-4.936 1.63-1.86 4.411-2.802 8.265-2.802 3.84 0 6.614.937 8.245 2.782 1.916 2.165 1.599 4.933 1.597 4.956a.949.949 0 0 0-.009.13v5.686c0 .278.118.544.325.73.423.384.658.898.658 1.45v3.933c0 .664-.34 1.28-.91 1.65a.983.983 0 0 0-.425.605c-.509 2.22-1.473 4.103-2.265 5.383a21.57 21.57 0 0 1-1.442.237.984.984 0 0 0-.858.975v9.41c0 4.89 1.64 9.583 4.513 13.207H199zm50.276-20.408c-4.845-.626-8.466-2.753-11.369-4.752a.984.984 0 0 0-1.115 0c-2.023 1.393-4.395 2.848-7.286 3.814a19.412 19.412 0 0 0 1.455-3.88 3.913 3.913 0 0 0 1.472-3.057v-3.933a3.92 3.92 0 0 0-.983-2.581v-5.23c.055-.542.271-3.762-2.057-6.418-2.02-2.304-5.298-3.471-9.743-3.471-4.446 0-7.724 1.167-9.743 3.471-2.33 2.656-2.113 5.876-2.057 6.417v5.23a3.914 3.914 0 0 0-.984 2.582v3.933a3.91 3.91 0 0 0 1.472 3.057c.901 3.567 2.787 6.255 3.445 7.118v3.253a2.6 2.6 0 0 1-1.354 2.282l-8.774 4.785a8.868 8.868 0 0 0-4.622 7.788v4.167c0 .543.44.984.983.984h32.853c.401.383.82.749 1.254 1.095 1.732 1.378 3.601 2.266 4.864 2.768a.963.963 0 0 0 .725 0c1.34-.532 3.289-1.447 4.96-2.776 4.672-3.721 7.461-9.8 7.461-16.262v-9.41a.983.983 0 0 0-.857-.974z"/><path id="adtmb" d="M244.234 270.966v5.443c0 4.681-1.957 9.036-5.234 11.644-.449.357-1.006.717-1.63 1.056a11.599 11.599 0 0 1-1.57-1.046c-3.34-2.658-5.333-7.016-5.333-11.654v-5.443c2.314-.687 4.577-1.69 6.884-3.046 2.307 1.356 4.57 2.358 6.883 3.046zm-7.396-5.03c-2.563 1.56-5.052 2.652-7.609 3.337a.983.983 0 0 0-.728.95v6.186c0 5.232 2.271 10.164 6.075 13.193a14.178 14.178 0 0 0 2.336 1.495.99.99 0 0 0 .891.005c.924-.464 1.762-.986 2.421-1.509 3.743-2.98 5.977-7.91 5.977-13.184v-6.187a.983.983 0 0 0-.729-.95c-2.557-.684-5.045-1.776-7.609-3.337a.984.984 0 0 0-1.025 0z"/></defs><g><g transform="translate(-197 -236)"><g><g><g><use fill="#ffe600" xlink:href="#adtma"/></g><g><use fill="#ffe600" xlink:href="#adtmb"/></g></g></g></g></g></svg>