<svg xmlns="http://www.w3.org/2000/svg" xmlns:xlink="http://www.w3.org/1999/xlink" width="62" height="62" viewBox="0 0 62 62"><defs><path id="ztm8a" d="M1439.922 1844.618a1.204 1.204 0 1 0 .001 2.408 1.204 1.204 0 0 0 0-2.408z"/><path id="ztm8b" d="M1423.55 1843.414a1.205 1.205 0 0 1 0-2.408c.427 0 .877.218 1.302.63a1.203 1.203 0 1 0 1.674-1.73c-.61-.592-1.222-.927-1.772-1.109v-1.402a1.204 1.204 0 1 0-2.408 0v1.41a3.617 3.617 0 0 0-2.407 3.405 3.615 3.615 0 0 0 3.611 3.612c.664 0 1.204.54 1.204 1.203 0 .664-.54 1.204-1.204 1.204-.514 0-1.07-.323-1.563-.91a1.203 1.203 0 1 0-1.843 1.549c.643.765 1.4 1.299 2.202 1.568v1.405a1.204 1.204 0 1 0 2.408 0v-1.411a3.618 3.618 0 0 0 2.408-3.405 3.615 3.615 0 0 0-3.612-3.611z"/><path id="ztm8c" d="M1413.92 1824.153c.664 0 1.203-.54 1.203-1.204v-4.815a1.204 1.204 0 1 0-2.407 0v4.815c0 .665.539 1.204 1.204 1.204z"/><path id="ztm8d" d="M1457.498 1849.433h-19.984c-.664 0-1.203-.54-1.203-1.204v-4.815c0-.664.54-1.204 1.203-1.204h18.78c.86 0 1.684-.225 2.408-.645v6.664c0 .664-.54 1.204-1.204 1.204zm-3.612 5.538a3.615 3.615 0 0 1-3.611 3.611h-1.926v-6.741h5.537zm-48.393 8.426a3.615 3.615 0 0 1-3.612-3.611v-32.096a6.483 6.483 0 0 0 3.87 1.278h36.579a3.615 3.615 0 0 1 3.611 3.611v7.223h-8.427a3.615 3.615 0 0 0-3.611 3.612v4.815a3.615 3.615 0 0 0 3.611 3.612h8.427v7.945a3.615 3.615 0 0 1-3.611 3.611zm0-44.06h1.204v7.223h-.947c-1.99 0-3.869-1.44-3.869-3.611a3.615 3.615 0 0 1 3.612-3.612zm3.611-3.611c0-.664.54-1.204 1.204-1.204h8.427v12.038h-9.63zm12.038 10.834v-12.038h4.816v12.038zm7.223 0v-12.038h3.612c.664 0 1.204.54 1.204 1.204v10.834zm-12.038-18.78c0-.663.54-1.203 1.204-1.203h22.391c.664 0 1.204.54 1.204 1.204v18.78h-5.538v-10.835a3.615 3.615 0 0 0-3.611-3.612h-15.65zm33.948 11.557a3.615 3.615 0 0 1 3.611 3.612v16.853h-5.537v-7.223a6.029 6.029 0 0 0-4.815-5.897v-7.345zm8.427 18.058a2.407 2.407 0 0 1-2.408 2.407v-4.815a2.41 2.41 0 0 1 2.408 2.408zm-2.408-4.816v-9.63c0-3.32-2.7-6.02-6.019-6.02h-6.741v-9.148a3.615 3.615 0 0 0-3.612-3.612h-22.391a3.615 3.615 0 0 0-3.612 3.612v4.333h-3.611a3.615 3.615 0 0 0-3.611 3.612v1.204h-1.204c-3.32 0-6.02 2.7-6.02 6.019v36.837c0 3.319 2.7 6.019 6.02 6.019h36.837a6.029 6.029 0 0 0 5.898-4.815h2.047c3.319 0 6.02-2.7 6.02-6.02v-3.13h1.203a3.615 3.615 0 0 0 3.611-3.61v-10.835a4.821 4.821 0 0 0-4.815-4.816z"/><path id="ztm8e" d="M1450.275 1844.618h-5.538a1.204 1.204 0 1 0 0 2.407h5.538a1.204 1.204 0 1 0 0-2.407z"/></defs><g><g transform="translate(-1399 -1804)"><g><use fill="#ffe600" xlink:href="#ztm8a"/></g><g><use fill="#ffe600" xlink:href="#ztm8b"/></g><g><use fill="#ffe600" xlink:href="#ztm8c"/></g><g><use fill="#ffe600" xlink:href="#ztm8d"/></g><g><use fill="#ffe600" xlink:href="#ztm8e"/></g></g></g></svg>