<svg xmlns="http://www.w3.org/2000/svg" xmlns:xlink="http://www.w3.org/1999/xlink" width="64" height="48" viewBox="0 0 64 48"><defs><path id="3um3a" d="M1034.736 6373.012v-11.338l10.45 5.718zm14.075-7.865l-13.982-7.65a2.546 2.546 0 0 0-2.543.043 2.546 2.546 0 0 0-1.259 2.21v15.17c0 .912.468 1.736 1.251 2.204.41.245.863.367 1.317.367.416 0 .833-.103 1.217-.31l13.983-7.518a2.568 2.568 0 0 0 .016-4.516z"/><path id="3um3b" d="M1067.006 6370.385c0 4.69-.41 9.519-.448 9.962-.157 1.221-.797 4.027-1.82 5.138-1.575 1.734-3.195 1.906-4.377 2.03-.143.016-.275.03-.395.045-8.093.586-20.252.675-20.812.679-.628-.01-15.554-.238-20.238-.673-.24-.039-.5-.069-.773-.1-1.386-.159-3.284-.376-4.743-1.981l-.034-.037c-1.005-1.046-1.626-3.67-1.784-5.086-.03-.336-.45-5.222-.45-9.977v-4.736c0-4.684.409-9.508.448-9.96.188-1.439.84-4.074 1.82-5.14 1.624-1.786 3.337-1.984 4.47-2.115l.302-.036c8.211-.588 20.458-.676 20.897-.68.44.004 12.682.092 20.82.68l.327.038c1.165.133 2.926.334 4.542 2.058l.015.016c1.004 1.046 1.626 3.716 1.784 5.16.028.317.45 5.214.45 9.98zm3.244-15.06l-.003-.03c-.054-.51-.587-5.04-2.79-7.345-2.546-2.711-5.433-3.04-6.821-3.199l-.315-.037-.11-.012c-8.368-.608-21.004-.691-21.13-.692h-.022c-.127 0-12.764.084-21.206.692l-.112.012c-.09.012-.189.023-.297.036-1.372.158-4.228.488-6.781 3.297-2.098 2.28-2.705 6.714-2.767 7.212l-.007.065c-.02.212-.466 5.259-.466 10.325v4.736c0 5.067.447 10.113.466 10.326l.003.031c.054.502.587 4.95 2.78 7.256 2.394 2.62 5.42 2.967 7.05 3.153.257.03.478.055.63.081l.146.02c4.83.46 19.978.687 20.62.696h.04c.126 0 12.762-.084 21.129-.692l.11-.012c.106-.014.225-.026.355-.04 1.365-.145 4.205-.446 6.724-3.216 2.098-2.281 2.705-6.715 2.767-7.213l.007-.065c.019-.212.466-5.258.466-10.325v-4.736c0-5.066-.447-10.112-.466-10.325z"/></defs><g><g transform="translate(-1007 -6344)"><g><use fill="#333" xlink:href="#3um3a"/></g><g><use fill="#333" xlink:href="#3um3b"/></g></g></g></svg>